<?xml version="1.0" standalone="no"?>
<!DOCTYPE svg PUBLIC "-//W3C//DTD SVG 20010904//EN"
 "http://www.w3.org/TR/2001/REC-SVG-20010904/DTD/svg10.dtd">
<svg version="1.0" xmlns="http://www.w3.org/2000/svg"
 width="718.000000pt" height="528.000000pt" viewBox="0 0 718.000000 528.000000"
 preserveAspectRatio="xMidYMid meet">

<g transform="translate(0.000000,528.000000) scale(0.100000,-0.100000)"
fill="#000000" stroke="none">
<path d="M0 2640 l0 -2640 3590 0 3590 0 0 2640 0 2640 -3590 0 -3590 0 0
-2640z m4523 876 c32 -10 64 -15 72 -13 7 3 16 3 20 -1 4 -4 11 -8 16 -8 5 -1
10 -2 12 -4 1 -1 10 -3 20 -5 42 -8 110 -50 157 -98 95 -97 129 -206 111 -352
-6 -47 -19 -104 -31 -129 -11 -25 -20 -50 -20 -55 0 -6 -3 -11 -8 -11 -4 0
-18 -21 -32 -46 -13 -26 -36 -59 -50 -74 -63 -66 -148 -159 -177 -193 -18 -20
-37 -37 -43 -37 -5 0 -10 -4 -10 -8 0 -5 -12 -14 -26 -21 -25 -11 -85 -56
-131 -97 -13 -12 -36 -26 -51 -32 -48 -18 -57 -22 -74 -32 -45 -25 -57 -32
-118 -61 -36 -16 -83 -34 -105 -39 -22 -5 -81 -21 -132 -36 -76 -23 -95 -25
-107 -14 -25 20 -19 44 23 100 22 29 42 67 45 85 6 31 41 74 51 63 3 -3 -6
-26 -20 -53 -14 -26 -24 -49 -22 -51 8 -9 47 29 47 46 0 10 4 21 9 25 5 3 12
19 16 35 4 17 13 30 20 30 16 0 35 30 35 56 0 10 6 25 14 33 11 13 11 30 1 96
-9 66 -13 76 -20 55 -8 -22 -10 -20 -17 25 -5 28 -9 61 -9 75 -1 14 -6 31 -11
37 -6 7 -8 23 -5 35 4 12 2 27 -4 34 -6 8 -4 15 6 24 22 18 18 26 -12 25 -19
0 -28 5 -28 16 0 9 -23 33 -50 54 -28 21 -56 43 -64 49 -11 8 -13 8 -7 -1 12
-22 -4 -14 -47 21 -23 18 -82 55 -132 81 -138 74 -132 68 -98 102 15 16 48 44
73 63 25 19 47 37 50 41 5 5 117 64 180 94 31 15 147 53 180 59 14 2 45 9 69
14 24 6 50 8 57 5 8 -3 14 0 14 6 0 19 292 8 363 -13z m-1533 -366 c0 -5 -5
-10 -11 -10 -5 0 -7 5 -4 10 3 6 8 10 11 10 2 0 4 -4 4 -10z m-30 -31 c0 -11
-46 -23 -59 -14 -16 10 -13 23 7 27 23 5 52 -2 52 -13z m-20 -114 c-7 -14 -20
-25 -27 -25 -10 0 -7 9 8 30 26 35 38 31 19 -5z m86 -14 c-15 -16 -38 -28 -51
-28 -21 0 -22 1 -9 14 7 8 14 18 14 23 0 10 61 30 69 23 3 -2 -8 -16 -23 -32z
m-356 1 c0 -18 18 -42 31 -42 4 0 5 8 2 19 -4 14 3 19 32 24 43 7 74 -1 53
-14 -10 -7 -8 -9 7 -9 19 -1 19 -1 1 -11 -15 -9 -16 -13 -5 -20 11 -7 11 -9
-2 -9 -9 0 -28 9 -42 20 -21 17 -26 18 -31 5 -3 -9 0 -15 8 -15 8 0 16 -7 20
-15 5 -13 1 -13 -27 1 -17 9 -40 25 -49 34 -9 10 -22 20 -29 22 -16 5 -2 28
17 28 8 0 14 -8 14 -18z m453 11 c-7 -2 -19 -2 -25 0 -7 3 -2 5 12 5 14 0 19
-2 13 -5z m317 -123 c0 -5 -2 -10 -4 -10 -3 0 -8 5 -11 10 -3 6 -1 10 4 10 6
0 11 -4 11 -10z m-40 -30 c0 -5 -4 -10 -10 -10 -5 0 -10 5 -10 10 0 6 5 10 10
10 6 0 10 -4 10 -10z m-722 -7 c-10 -2 -28 -2 -40 0 -13 2 -5 4 17 4 22 1 32
-1 23 -4z m-68 -13 c0 -5 -9 -10 -19 -10 -11 0 -21 -6 -24 -12 -4 -10 -7 -10
-18 0 -11 10 -10 12 4 12 9 0 17 5 17 10 0 6 9 10 20 10 11 0 20 -4 20 -10z
m-75 -30 c3 -6 -4 -10 -17 -10 -18 0 -20 2 -8 10 19 12 18 12 25 0z m936 -21
c20 -10 27 -63 9 -74 -6 -3 -10 5 -10 18 0 20 -6 26 -34 31 -19 4 -46 4 -61 0
-20 -5 -24 -11 -19 -26 5 -18 3 -20 -22 -16 -16 3 -36 8 -45 12 -12 5 -19 -1
-27 -23 -6 -17 -16 -31 -21 -31 -16 0 -14 8 19 57 17 24 30 47 30 51 0 12 160
12 181 1z m99 -5 c0 -8 -4 -12 -10 -9 -5 3 -10 10 -10 16 0 5 5 9 10 9 6 0 10
-7 10 -16z m-123 -71 c29 -33 15 -57 -28 -48 -15 3 -30 2 -33 -3 -7 -12 22
-25 35 -16 5 3 16 -2 25 -10 27 -27 47 -20 42 14 -4 27 -2 31 16 28 13 -2 22
-12 24 -25 2 -17 -5 -24 -32 -34 -20 -7 -36 -17 -36 -21 0 -4 -9 -8 -19 -8
-11 0 -21 -5 -23 -12 -5 -14 -58 -2 -58 13 0 8 4 8 14 0 11 -9 15 -7 19 11 8
28 2 34 -18 18 -15 -12 -17 -8 -14 28 0 4 -10 9 -23 12 -31 8 -29 32 4 41 15
4 37 14 50 23 29 21 28 21 55 -11z m91 -7 c3 -12 -1 -17 -10 -14 -7 3 -15 13
-16 22 -3 12 1 17 10 14 7 -3 15 -13 16 -22z m-538 -50 c14 -18 14 -18 -7 -6
-12 8 -19 18 -16 23 3 4 6 7 7 5 1 -2 8 -12 16 -22z m-430 4 c0 -6 -7 -13 -15
-16 -8 -4 -15 -12 -15 -20 0 -8 -7 -14 -15 -14 -21 0 -19 16 5 40 22 22 40 26
40 10z m396 -36 c-3 -8 -2 -14 3 -14 5 0 11 -10 14 -21 5 -20 7 -20 22 -5 9 9
21 16 26 16 6 0 7 9 3 22 -6 20 -5 21 10 9 14 -12 16 -11 16 5 0 13 3 15 11 7
8 -8 8 -17 -1 -33 -10 -18 -8 -24 11 -41 18 -15 20 -21 9 -34 -11 -13 -10 -14
4 -9 9 3 16 12 16 19 0 7 5 15 11 17 9 3 9 9 0 25 -6 13 -7 24 -2 27 5 4 12 0
14 -6 3 -8 6 -5 6 5 1 14 6 17 24 11 28 -8 24 -4 32 -37 6 -24 4 -27 -18 -27
-23 0 -45 -16 -35 -25 2 -2 22 -6 43 -8 49 -5 56 -27 21 -55 -26 -20 -34 -42
-17 -42 5 0 11 7 15 15 6 18 36 9 36 -11 0 -8 5 -14 10 -14 6 0 10 -5 10 -10
0 -6 -6 -10 -12 -9 -25 3 -36 -1 -42 -17 -5 -13 -2 -15 14 -11 26 7 26 -14 1
-37 -12 -11 -36 -17 -70 -18 -39 0 -51 -4 -51 -15 0 -10 -6 -13 -16 -9 -9 3
-20 6 -25 6 -5 0 -9 5 -9 10 0 6 7 10 15 10 8 0 34 14 57 30 22 17 47 30 55
30 7 0 13 4 13 9 0 5 -19 9 -43 9 -34 -1 -46 -6 -53 -22 -11 -25 -68 -30 -99
-9 -11 7 -34 13 -52 13 -35 0 -41 8 -21 28 17 17 0 28 -22 14 -27 -16 -60 -15
-60 2 0 30 85 37 106 9 12 -16 13 -16 14 9 0 22 -5 27 -27 30 -63 7 -93 -4
-135 -48 -23 -24 -48 -44 -55 -44 -8 0 -16 -7 -20 -16 -6 -15 -7 -15 -19 1 -7
9 -17 14 -23 11 -5 -4 -12 -2 -16 4 -3 5 6 12 20 16 24 6 38 44 16 44 -5 0
-13 9 -16 20 -3 11 -12 20 -20 20 -7 0 -34 9 -59 20 -48 20 -70 60 -47 83 9 9
13 6 17 -11 4 -12 11 -19 16 -16 5 3 18 -2 29 -12 17 -16 19 -16 19 -1 0 10
-6 17 -14 17 -16 0 -28 37 -15 46 6 3 16 1 24 -6 10 -9 21 -7 46 5 22 12 38
14 53 8 25 -11 93 -9 104 2 4 5 2 5 -5 1 -6 -3 -15 -2 -18 4 -4 6 -15 8 -26 5
-11 -4 -19 -2 -19 5 0 8 9 10 28 6 35 -9 161 -18 145 -10 -7 3 -13 12 -13 20
0 12 4 12 21 4 12 -7 18 -18 15 -26z m324 14 c0 -17 3 -19 12 -10 19 19 23 14
24 -29 1 -35 -1 -40 -17 -36 -11 3 -19 1 -19 -4 0 -5 5 -9 10 -9 15 0 12 -27
-4 -33 -18 -7 -26 1 -26 26 0 10 -9 31 -20 46 -18 27 -18 29 -2 49 22 28 42
28 42 0z m-535 -8 c3 -5 -1 -10 -10 -10 -9 0 -13 5 -10 10 3 6 8 10 10 10 2 0
7 -4 10 -10z m835 -24 c0 -3 -4 -8 -10 -11 -5 -3 -10 -1 -10 4 0 6 5 11 10 11
6 0 10 -2 10 -4z m-50 -15 c0 -5 -12 -19 -27 -31 -20 -15 -29 -18 -32 -9 -2 7
6 21 19 31 24 20 40 23 40 9z m64 -35 c-3 -9 -10 -13 -16 -10 -5 3 -4 12 3 20
15 18 22 13 13 -10z m-234 -6 c0 -13 -7 -20 -20 -20 -25 0 -26 16 -2 29 23 14
22 14 22 -9z m90 0 c0 -5 -7 -10 -15 -10 -8 0 -15 -6 -15 -14 0 -7 -7 -19 -15
-26 -8 -7 -15 -25 -15 -41 0 -19 -5 -29 -15 -29 -8 0 -15 2 -15 5 0 3 7 22 15
42 8 19 15 44 15 53 0 10 6 21 13 23 21 9 47 7 47 -3z m-917 -76 c5 -16 15
-42 23 -57 13 -26 12 -28 -4 -25 -10 2 -18 14 -20 30 -2 15 -10 32 -18 38 -17
15 -19 53 -1 48 6 -3 16 -18 20 -34z m730 2 c-4 -5 1 -7 10 -3 21 8 40 -17 32
-42 -8 -25 -41 -21 -37 5 2 10 -3 23 -12 30 -10 7 -14 18 -10 29 5 13 9 14 15
4 4 -7 5 -17 2 -23z m247 24 c0 -5 -5 -10 -11 -10 -5 0 -7 5 -4 10 3 6 8 10
11 10 2 0 4 -4 4 -10z m-166 -9 c7 -10 -22 -37 -30 -28 -9 8 3 37 15 37 5 0
12 -4 15 -9z m131 -1 c-3 -5 -13 -10 -21 -10 -8 0 -14 5 -14 10 0 6 9 10 21
10 11 0 17 -4 14 -10z m-875 -29 c0 -5 8 -12 18 -15 9 -3 22 -14 29 -24 10
-17 8 -18 -15 -14 -47 8 -87 62 -47 62 8 0 15 -4 15 -9z m840 0 c0 -5 -7 -14
-15 -21 -16 -14 -18 -10 -9 14 6 17 24 22 24 7z m-602 -69 c4 -13 -45 -35 -59
-26 -16 10 -10 24 11 24 11 0 20 5 20 11 0 14 22 7 28 -9z m542 14 c0 -3 -4
-8 -10 -11 -5 -3 -10 -1 -10 4 0 6 5 11 10 11 6 0 10 -2 10 -4z m-110 -52 c0
-8 -5 -12 -10 -9 -6 4 -8 11 -5 16 9 14 15 11 15 -7z m-510 -13 c0 -15 -29
-33 -41 -25 -9 5 -7 11 6 21 22 15 35 17 35 4z m124 -16 c4 -11 -2 -15 -25
-15 -17 0 -39 -5 -49 -10 -13 -7 -21 -7 -25 0 -3 5 3 10 13 10 11 0 25 7 32
15 7 8 20 15 30 15 10 0 20 -7 24 -15z m61 -5 c-3 -5 -15 -10 -26 -10 -11 0
-17 5 -14 10 3 6 15 10 26 10 11 0 17 -4 14 -10z m80 -10 c-3 -5 -10 -10 -16
-10 -5 0 -9 5 -9 10 0 6 7 10 16 10 8 0 12 -4 9 -10z m226 -31 c-14 -15 -26
-19 -38 -14 -16 6 -14 9 12 21 43 19 49 17 26 -7z m-68 -6 c-7 -2 -19 -2 -25
0 -7 3 -2 5 12 5 14 0 19 -2 13 -5z m-38 -23 c-3 -5 -12 -10 -20 -10 -8 0 -17
5 -20 10 -4 6 5 10 20 10 15 0 24 -4 20 -10z m-55 -10 c0 -5 -7 -10 -15 -10
-8 0 -15 5 -15 10 0 6 7 10 15 10 8 0 15 -4 15 -10z"/>
<path d="M3015 2551 c-7 -12 12 -24 25 -16 11 7 4 25 -10 25 -5 0 -11 -4 -15
-9z"/>
<path d="M2970 2530 c0 -5 10 -10 23 -10 18 0 19 2 7 10 -19 13 -30 13 -30 0z"/>
<path d="M2716 2510 c8 -31 4 -27 37 -35 20 -5 27 -4 27 8 0 8 -12 18 -27 22
-15 3 -32 12 -36 18 -5 7 -5 1 -1 -13z"/>
<path d="M3160 2495 c13 -16 30 -11 30 8 0 7 -4 6 -10 -3 -6 -10 -10 -11 -10
-2 0 6 -5 12 -11 12 -8 0 -8 -5 1 -15z"/>
<path d="M2992 2479 c-21 -8 -22 -11 -8 -24 18 -19 30 -19 23 -1 -3 7 0 19 6
25 13 13 10 13 -21 0z"/>
</g>
</svg>
