<?xml version="1.0" standalone="no"?>
<!DOCTYPE svg PUBLIC "-//W3C//DTD SVG 20010904//EN"
 "http://www.w3.org/TR/2001/REC-SVG-20010904/DTD/svg10.dtd">
<svg version="1.0" xmlns="http://www.w3.org/2000/svg"
 width="454.000000pt" height="532.000000pt" viewBox="0 0 454.000000 532.000000"
 preserveAspectRatio="xMidYMid meet">

<g transform="translate(0.000000,532.000000) scale(0.100000,-0.100000)"
fill="#000000" stroke="none">
<path d="M2 3743 l3 -1577 105 -33 c132 -42 300 -77 460 -98 196 -24 189 -20
349 -219 145 -180 183 -217 266 -258 90 -45 139 -53 305 -52 253 1 682 75
1199 205 151 38 296 69 322 69 83 0 122 -49 269 -328 36 -69 71 -127 77 -129
19 -7 58 41 71 85 7 22 12 66 13 98 1 79 17 42 18 -41 1 -69 -12 -124 -37
-155 -9 -11 -53 -34 -97 -49 -121 -44 -747 -301 -810 -333 -39 -20 -196 -88
-203 -88 -2 0 0 6 3 13 4 6 0 4 -8 -5 -8 -10 -16 -15 -19 -12 -3 2 -50 -13
-104 -34 -291 -115 -586 -197 -819 -227 -71 -10 -136 -22 -142 -27 -20 -16
-114 -16 -108 0 3 8 -6 12 -28 12 -90 0 -327 43 -428 77 -59 20 -106 40 -103
45 3 4 -7 14 -22 20 -33 15 -137 114 -153 145 -6 12 -17 20 -24 17 -7 -2 -28
26 -52 75 -22 44 -45 80 -50 80 -6 1 -35 26 -65 58 -53 54 -54 55 -17 33 21
-12 40 -21 41 -19 2 2 -7 24 -20 49 -12 25 -28 56 -35 70 -6 14 -15 33 -20 43
-6 10 -7 22 -4 27 4 6 -1 10 -9 10 -11 0 -16 9 -16 28 0 15 -9 35 -21 45 -12
11 -18 25 -14 36 3 10 -1 23 -9 30 -8 6 -17 27 -20 46 -4 19 -11 35 -16 35 -6
0 -10 9 -10 20 0 11 -4 20 -10 20 -7 0 -10 -265 -10 -775 l0 -775 1395 0 c767
0 1395 2 1395 4 0 2 -64 64 -142 137 -79 73 -201 187 -272 253 -71 67 -134
126 -140 131 -6 6 -55 52 -108 103 l-96 92 28 15 c40 21 51 19 85 -12 33 -29
364 -344 515 -489 52 -50 129 -123 170 -162 l75 -71 818 -1 817 0 0 1556 0
1556 -37 -48 c-48 -63 -69 -80 -121 -95 -54 -15 -142 1 -229 42 -106 51 -132
113 -90 216 26 64 142 247 177 278 16 14 18 21 8 28 -10 7 -9 8 2 4 8 -2 24
-1 35 3 17 7 15 9 -15 18 -31 10 -28 10 30 7 57 -4 61 -3 30 6 -49 14 -98 38
-80 39 12 1 12 3 -3 14 -15 11 -15 15 -3 25 11 9 27 8 71 -4 71 -21 82 -13 15
11 -55 20 -62 29 -27 38 31 8 44 7 29 -3 -9 -6 -5 -8 15 -8 15 0 39 -4 53 -8
43 -14 14 5 -45 30 l-57 23 54 16 c58 17 118 13 155 -11 14 -10 23 -11 28 -4
6 11 -17 23 -90 46 -22 7 -39 18 -37 25 2 8 -3 10 -13 6 -9 -3 -22 -6 -28 -7
-7 0 -3 -5 8 -10 17 -8 16 -9 -5 -3 -14 3 -36 7 -49 9 -13 2 -31 11 -40 21 -9
9 -10 14 -3 10 6 -4 12 -2 12 4 0 7 7 9 15 6 51 -21 51 -21 31 2 -11 12 -26
22 -35 23 -11 0 -9 3 6 9 21 9 21 9 -12 46 -19 20 -32 42 -28 48 28 51 -90
-99 -376 -480 -185 -246 -342 -449 -349 -452 -6 -2 -12 4 -12 13 0 13 -6 15
-27 11 -28 -6 -63 5 -878 285 -148 51 -271 96 -273 101 -6 14 -22 9 -22 -7 0
-8 -2 -15 -4 -15 -21 0 -322 114 -330 125 -6 8 -218 85 -471 170 -496 168
-531 180 -539 201 -9 25 3 40 112 135 214 189 347 312 344 321 -1 5 2 7 7 4 5
-3 14 1 21 9 9 11 9 15 1 16 -32 4 -71 19 -71 29 0 10 -79 42 -89 35 -5 -2
-35 4 -67 14 -33 10 -71 22 -86 25 -28 6 -39 26 -15 26 8 0 7 4 -3 10 -8 5
-22 10 -30 10 -13 0 -13 -1 0 -10 13 -8 12 -10 -3 -10 -10 0 -38 5 -62 11 -31
8 -42 15 -40 27 1 10 8 16 14 15 16 -4 13 8 -6 24 -17 14 -17 14 2 10 11 -3
29 -8 40 -12 l20 -7 -20 13 c-23 13 -54 50 -55 63 0 5 6 4 13 -2 6 -5 23 -13
37 -17 24 -6 24 -6 -5 19 -37 31 -31 32 30 5 34 -15 50 -18 58 -10 6 6 7 14 3
18 -4 4 -11 1 -16 -7 -6 -9 -10 -10 -10 -3 0 6 -12 15 -27 20 -21 7 -12 9 38
7 77 -2 252 -52 245 -70 -7 -19 3 -23 35 -14 29 9 111 -11 134 -31 5 -5 15 -9
23 -9 8 0 25 -9 39 -20 14 -11 33 -20 42 -20 11 1 8 5 -9 16 -25 15 -25 15 10
8 19 -3 97 -24 172 -46 110 -33 136 -44 127 -54 -6 -7 -8 -18 -4 -24 4 -7 1
-10 -6 -8 -19 3 -69 -31 -69 -48 0 -8 -6 -14 -13 -14 -7 0 -25 -13 -40 -28
l-28 -29 60 -18 60 -18 -42 -38 -42 -37 30 -12 c66 -25 84 -24 116 6 16 15 28
33 25 39 -2 7 8 9 28 7 23 -3 37 3 56 23 21 22 22 28 10 35 -8 5 -24 10 -35
10 -15 0 -12 6 18 27 26 18 36 32 32 44 -3 9 -1 20 4 24 7 3 8 0 5 -9 -4 -12
0 -16 17 -17 22 0 23 -1 4 -8 -11 -5 -29 -18 -40 -30 -16 -19 -17 -24 -5 -31
8 -6 21 -10 29 -10 8 0 0 -16 -20 -39 -26 -30 -39 -37 -57 -34 -16 4 -32 -3
-53 -23 -16 -15 -29 -33 -29 -39 0 -11 62 -35 92 -35 16 0 68 51 68 67 0 6 9
9 19 6 17 -4 14 -9 -20 -40 -21 -19 -39 -38 -39 -42 0 -9 100 -41 127 -41 24
0 78 54 69 69 -4 6 -1 9 6 6 8 -3 27 8 43 25 l28 30 -34 14 c-61 24 -64 26
-39 21 16 -3 32 3 47 17 31 29 29 43 -9 56 -30 10 -30 11 -4 6 19 -3 35 1 47
12 20 18 27 6 7 -14 -9 -9 -8 -12 3 -16 8 -2 28 -9 44 -15 l30 -10 -35 5 c-29
4 -40 1 -59 -20 -14 -14 -22 -28 -19 -31 2 -3 25 -11 51 -19 45 -13 46 -13 73
15 23 25 25 29 11 35 -15 5 -14 9 7 25 32 25 39 24 24 -2 -9 -15 -10 -23 -2
-26 6 -2 -5 -20 -24 -39 -32 -32 -38 -34 -65 -24 -29 10 -33 7 -99 -57 -37
-38 -68 -71 -68 -75 0 -4 26 -14 58 -23 31 -9 98 -32 147 -52 50 -20 117 -47
150 -60 33 -13 50 -22 38 -19 -13 2 -23 0 -23 -6 0 -5 -10 -7 -22 -4 -13 3
-17 3 -10 0 19 -9 15 -36 -5 -30 -10 2 -51 14 -91 26 -75 22 -113 22 -48 0 20
-6 34 -16 30 -21 -3 -5 12 -27 34 -49 59 -60 192 -89 252 -55 14 7 39 11 55 9
19 -3 8 5 -30 20 -39 17 -52 25 -37 25 15 1 26 8 29 20 5 20 18 21 82 6 21 -4
31 -3 28 2 -4 6 7 23 23 38 32 31 38 50 18 59 -7 3 -3 3 10 0 13 -3 29 0 37 6
28 23 15 4 -30 -43 -25 -27 -45 -52 -45 -56 0 -4 33 -17 72 -29 l73 -21 32 31
c39 38 40 46 11 58 -17 6 -18 9 -6 9 18 1 61 55 51 65 -3 3 1 6 10 6 23 0 21
-7 -8 -42 -28 -33 -25 -47 8 -49 20 -1 20 -2 2 -6 -19 -5 -75 -61 -75 -75 0
-4 25 -14 57 -23 l56 -16 31 30 c24 25 29 35 20 48 -8 12 -5 22 13 41 13 14
23 31 23 38 0 8 5 14 10 14 17 0 11 -26 -10 -45 -31 -28 -24 -39 36 -58 l57
-19 23 29 c13 15 23 34 24 41 0 7 5 10 11 7 6 -4 0 -20 -17 -42 -21 -27 -24
-37 -14 -43 11 -7 8 -16 -13 -44 -15 -19 -27 -39 -27 -44 0 -5 24 -16 53 -25
l52 -15 33 34 c18 19 30 39 27 44 -8 13 -7 13 61 -10 32 -11 69 -20 81 -20 23
0 67 46 57 61 -3 5 1 9 8 9 16 0 108 114 108 135 0 8 8 15 18 16 9 0 12 3 6 5
-6 3 -30 1 -52 -4 -50 -12 -76 -6 -277 56 -152 48 -1563 484 -1690 522 -253
77 -715 222 -737 231 -31 13 -37 29 -10 29 9 0 -1 9 -23 20 -38 18 -38 19 -10
16 17 -2 44 -11 60 -20 17 -9 37 -16 45 -15 8 0 5 4 -7 9 -13 5 -23 14 -23 20
0 13 13 13 27 -1 15 -15 34 -3 26 16 -3 9 1 15 11 16 29 3 34 4 42 12 4 4 -1
7 -11 7 -26 0 -95 22 -95 31 0 4 18 5 40 2 30 -4 40 -2 40 8 0 11 2 11 10 -1
11 -18 25 -7 17 14 -4 11 -16 15 -37 12 -25 -3 -28 -1 -19 11 7 7 20 11 30 8
11 -4 19 -2 19 4 0 6 -21 11 -51 11 -33 0 -48 4 -44 11 4 6 32 9 66 8 32 -1
62 1 66 4 3 4 0 8 -8 8 -45 4 -72 9 -78 15 -3 3 31 3 76 0 75 -6 82 -5 76 10
-5 13 -2 15 13 11 28 -9 108 -26 119 -27 6 0 3 5 -5 11 -23 16 54 4 92 -15 17
-9 38 -16 47 -16 9 0 29 -7 45 -15 15 -8 33 -15 39 -15 21 0 -7 17 -68 40 -33
13 -66 30 -73 37 -7 7 -25 13 -39 13 -18 0 -24 4 -19 15 3 9 -5 20 -22 30 -18
11 -21 14 -7 11 11 -2 36 -8 55 -11 19 -4 40 -11 45 -15 6 -4 24 -10 40 -13
17 -3 39 -9 50 -12 16 -6 17 -5 5 4 -8 6 -52 22 -97 37 -46 14 -81 30 -78 34
3 5 20 4 38 -1 41 -12 60 -11 52 1 -3 6 -15 10 -27 10 -11 0 -22 8 -25 20 -3
12 -13 19 -25 17 -12 -1 -23 4 -25 11 -4 10 2 11 24 6 15 -4 30 -10 33 -13 3
-3 14 -6 25 -7 11 0 31 -4 45 -9 44 -13 11 9 -36 25 -24 8 -44 20 -43 25 0 6
7 9 15 7 20 -4 17 15 -3 23 -17 6 -17 7 0 16 23 13 22 26 -3 34 -11 4 -18 10
-15 15 3 5 -314 9 -740 10 l-745 0 2 -1577z m1289 1295 c-1 -5 -3 -8 -6 -8 -3
0 -20 0 -37 1 -31 1 -32 1 -8 9 29 9 51 8 51 -2z m-314 -464 c-3 -3 -12 -4
-19 -1 -8 3 -5 6 6 6 11 1 17 -2 13 -5z m368 -132 c-3 -3 -11 0 -18 7 -9 10
-8 11 6 5 10 -3 15 -9 12 -12z m632 -18 c-3 -3 -12 -4 -19 -1 -8 3 -5 6 6 6
11 1 17 -2 13 -5z m-569 -59 c-3 -3 -9 2 -12 12 -6 14 -5 15 5 6 7 -7 10 -15
7 -18z m835 8 c-22 -8 -14 -33 10 -34 18 -1 19 -2 4 -6 -22 -6 -67 -43 -67
-55 0 -4 11 -10 25 -14 14 -3 25 -7 25 -9 0 -2 -16 -19 -36 -39 -44 -44 -60
-39 -18 5 24 25 26 31 14 39 -8 5 -22 10 -30 10 -10 0 -3 12 18 31 37 33 36
38 -11 56 l-32 13 30 -5 c17 -3 37 -1 45 5 8 5 20 9 25 9 6 0 4 -3 -2 -6z
m-254 -38 c6 -7 -53 -74 -66 -74 -20 -1 -16 7 20 38 l32 30 -25 11 c-24 10
-24 10 5 4 16 -3 32 -7 34 -9z m621 -80 c-7 -8 -10 -21 -7 -29 3 -8 -3 -22
-14 -32 -10 -9 -19 -23 -19 -31 0 -7 -4 -13 -10 -13 -16 0 -12 12 17 42 22 24
24 28 10 34 -15 5 -14 8 6 25 27 22 34 24 17 4z m-53 -11 c-3 -3 -12 -4 -19
-1 -8 3 -5 6 6 6 11 1 17 -2 13 -5z m-64 -64 c6 0 -4 -12 -21 -26 -18 -15 -32
-33 -32 -41 0 -15 -34 -10 -85 14 -16 7 -21 11 -10 7 57 -16 76 -16 96 2 12
11 18 26 15 37 -3 13 0 17 11 13 8 -3 20 -6 26 -6z m80 -94 c-10 -13 -20 -22
-22 -20 -4 4 29 44 36 44 2 0 -4 -11 -14 -24z m552 5 c-3 -11 -1 -22 5 -26 6
-4 0 -17 -15 -33 -14 -15 -25 -30 -25 -34 0 -5 -8 -8 -17 -8 -13 0 -9 8 16 34
20 21 29 36 22 40 -7 5 -7 13 2 26 15 25 20 25 12 1z m133 -42 c-10 -17 -10
-23 -1 -26 15 -5 -35 -73 -54 -73 -6 0 2 14 19 32 26 28 28 33 14 43 -13 10
-13 13 2 27 24 23 34 21 20 -3z m131 -63 c9 -11 6 -21 -15 -45 -14 -17 -30
-31 -34 -31 -5 0 2 12 15 26 27 30 32 50 13 57 -8 4 -9 6 -2 6 6 1 17 -5 23
-13z m154 -47 c18 0 19 -2 5 -7 -9 -4 -28 -22 -41 -39 -13 -18 -27 -30 -31
-26 -3 4 6 20 21 36 26 27 27 29 10 42 -13 9 -15 14 -5 17 7 3 14 -1 16 -9 2
-7 13 -13 25 -14z m112 -19 c-3 -6 1 -13 9 -16 13 -5 11 -12 -12 -45 -26 -37
-42 -49 -42 -31 0 5 9 17 20 27 26 24 25 45 -2 53 -23 6 -23 6 2 13 14 4 26 7
28 8 2 1 0 -4 -3 -9z m710 -160 c-3 -5 -14 -10 -23 -9 -14 0 -13 2 3 9 27 11
27 11 20 0z"/>
<path d="M1521 5311 c-9 -6 1 -13 35 -25 55 -19 68 -20 59 -6 -3 6 -17 10 -31
10 -15 0 -24 6 -24 15 0 17 -18 19 -39 6z"/>
<path d="M1606 5306 c32 -14 104 -18 104 -5 0 13 -34 20 -41 7 -6 -9 -13 -9
-34 0 -14 7 -34 12 -43 12 -10 -1 -3 -7 14 -14z"/>
<path d="M3276 5313 c5 -5 12 -12 16 -18 4 -6 8 -2 8 8 0 9 -7 17 -17 17 -9 0
-12 -3 -7 -7z"/>
<path d="M3320 5312 c0 -14 11 -21 26 -15 8 3 11 9 8 14 -7 11 -34 12 -34 1z"/>
<path d="M3387 5311 c-10 -4 -18 -10 -18 -14 2 -21 -1 -26 -16 -31 -10 -2 -2
-2 18 1 20 2 56 -1 80 -8 24 -7 52 -11 62 -10 25 3 21 -6 -10 -24 -21 -12 -22
-14 -7 -10 16 4 28 -2 42 -20 19 -23 40 -36 28 -16 -4 5 -1 11 5 13 6 2 2 14
-10 30 -18 23 -19 27 -5 32 10 4 18 -1 21 -13 3 -11 14 -21 24 -24 17 -4 18
-3 8 9 -9 11 -7 14 14 14 14 0 29 -4 32 -10 3 -5 1 -10 -5 -10 -29 0 6 -20 45
-26 44 -6 64 -19 50 -32 -3 -3 -10 0 -15 8 -8 13 -10 12 -10 -2 0 -9 -8 -19
-17 -21 -10 -2 -6 -3 9 -1 15 2 30 -1 33 -6 3 -6 12 -10 18 -10 8 0 7 3 -2 9
-11 7 -11 10 1 17 8 5 18 16 22 24 3 8 4 3 2 -12 -1 -15 0 -26 3 -24 3 3 15
-2 26 -10 13 -10 15 -14 4 -14 -12 0 -12 -2 1 -10 12 -8 9 -10 -10 -6 -14 3
-43 8 -65 12 -44 8 -48 9 -87 19 -16 4 -28 5 -28 2 0 -5 70 -27 133 -41 19 -5
27 -12 25 -24 -2 -12 5 -18 22 -20 19 -2 22 -1 10 7 -12 9 -12 11 2 16 22 9
39 -2 31 -20 -3 -10 1 -15 13 -15 11 0 15 -4 9 -8 -22 -16 -13 -28 18 -24 18
3 26 7 20 9 -21 7 -15 20 11 25 16 3 27 0 30 -9 8 -20 8 -21 -11 -26 -17 -4
-17 -5 0 -6 9 0 17 -6 17 -12 0 -5 -5 -7 -12 -3 -7 4 -8 3 -4 -4 4 -7 15 -12
25 -12 11 0 29 -9 42 -20 20 -16 21 -19 7 -20 -10 0 -18 4 -18 9 0 4 -12 6
-26 3 -17 -3 -25 -1 -21 5 9 14 -32 24 -62 16 -18 -5 -22 -3 -16 6 5 10 2 11
-14 6 -14 -4 -21 -2 -21 7 0 11 -2 11 -9 0 -5 -9 -17 -11 -34 -7 -15 4 -25 10
-22 14 2 4 -10 7 -28 7 -18 -1 -45 3 -62 7 -21 6 -27 5 -20 -2 6 -6 35 -16 65
-22 30 -6 71 -15 90 -19 86 -20 105 -22 90 -11 -13 9 -13 11 2 11 9 0 18 -5
20 -12 2 -6 20 -18 39 -25 19 -7 24 -11 12 -9 -13 2 -23 1 -23 -3 0 -10 46
-31 68 -31 9 0 35 -7 57 -15 l40 -14 -35 -2 -35 -1 40 -14 40 -14 -37 5 c-84
13 -202 24 -206 21 -2 -2 12 -7 30 -12 l33 -7 -35 -13 c-46 -16 -53 -17 -44
-1 6 10 4 10 -7 0 -7 -7 -21 -13 -31 -13 -10 0 -18 -5 -18 -10 0 -6 -10 -8
-24 -4 -13 3 -27 1 -30 -4 -8 -13 21 -17 134 -21 56 -2 105 -8 120 -17 16 -8
19 -13 9 -14 -9 0 -26 -8 -38 -19 -16 -14 -18 -21 -9 -28 18 -13 66 -15 73 -3
3 6 13 10 22 10 12 0 13 -3 4 -14 -14 -16 -1 -50 21 -59 10 -4 10 -6 0 -6 -7
-1 -23 10 -36 24 -13 14 -34 25 -47 25 -23 -1 -23 -1 5 -17 16 -8 39 -24 50
-34 11 -11 26 -19 33 -19 7 0 10 -6 7 -15 -4 -9 -19 -15 -35 -15 -16 0 -29 -4
-29 -10 0 -5 0 -12 0 -15 0 -3 3 -6 8 -7 17 -5 44 -37 37 -47 -3 -6 -1 -11 4
-11 6 0 11 5 11 12 0 9 3 9 12 0 16 -16 28 -15 28 3 0 8 4 15 9 15 5 0 17 3
25 6 12 5 15 2 10 -9 -4 -12 4 -20 28 -31 21 -9 26 -15 15 -15 -10 -1 -16 -5
-13 -10 3 -5 -1 -11 -9 -15 -8 -3 -15 -9 -15 -13 0 -10 55 -34 87 -38 34 -5
92 -28 88 -34 -1 -3 25 -6 58 -5 34 1 72 -3 84 -7 l22 -8 1 499 0 500 -567 -1
c-313 0 -576 -4 -586 -8z m73 -21 c0 -10 -26 -20 -33 -13 -3 3 -3 11 0 18 5
14 33 9 33 -5z m84 -9 c7 -11 -14 -20 -31 -13 -7 2 -10 8 -7 13 7 12 31 12 38
0z m-54 -11 c0 -5 -5 -10 -11 -10 -5 0 -7 5 -4 10 3 6 8 10 11 10 2 0 4 -4 4
-10z m60 -44 c0 -3 -4 -8 -10 -11 -5 -3 -10 -1 -10 4 0 6 5 11 10 11 6 0 10
-2 10 -4z m155 -6 c-3 -5 -14 -10 -23 -9 -14 0 -13 2 3 9 27 11 27 11 20 0z
m227 -117 c-6 -3 -10 -9 -6 -14 6 -10 -17 -12 -41 -3 -21 9 -5 19 32 20 15 1
22 -1 15 -3z m-37 -43 c3 -5 2 -10 -4 -10 -5 0 -13 5 -16 10 -3 6 -2 10 4 10
5 0 13 -4 16 -10z m160 -66 c19 -16 19 -16 -5 -9 -14 4 -32 11 -40 16 -12 7
-11 8 5 8 11 0 29 -7 40 -15z m80 -44 c3 -5 -1 -10 -10 -10 -9 0 -13 5 -10 10
3 6 8 10 10 10 2 0 7 -4 10 -10z m-98 -46 c-3 -3 -12 -4 -19 -1 -8 3 -5 6 6 6
11 1 17 -2 13 -5z m88 -14 c3 -6 -1 -7 -9 -4 -18 7 -21 14 -7 14 6 0 13 -4 16
-10z m-105 -74 c0 -2 -7 -7 -16 -10 -8 -3 -12 -2 -9 4 6 10 25 14 25 6z m55
-96 c3 -5 1 -10 -4 -10 -6 0 -11 5 -11 10 0 6 2 10 4 10 3 0 8 -4 11 -10z
m162 4 c-3 -3 -12 -4 -19 -1 -8 3 -5 6 6 6 11 1 17 -2 13 -5z m-59 -29 c11
-10 -8 -17 -20 -8 -7 6 -20 13 -28 16 -8 2 -2 3 14 1 16 -2 32 -6 34 -9z m79
-9 c-4 -10 5 -18 26 -26 l32 -12 -24 -9 c-14 -5 -38 -7 -54 -3 -19 4 -34 1
-46 -11 -17 -14 -20 -14 -34 -1 -9 9 -22 14 -29 11 -7 -3 -22 1 -33 9 -17 13
-18 15 -3 16 9 0 18 -5 20 -11 3 -9 9 -9 25 0 12 6 30 11 40 11 23 0 73 22 73
33 0 4 3 7 6 7 3 0 4 -6 1 -14z m49 -83 c17 -17 16 -18 -10 -21 -35 -4 -58 14
-36 28 21 13 26 12 46 -7z m171 -57 c-5 -16 -27 -19 -27 -3 0 7 7 14 15 14 9
0 14 -5 12 -11z m-173 -102 c9 -3 16 -10 16 -14 0 -10 -38 -1 -46 11 -6 10 7
12 30 3z"/>
<path d="M3188 5303 c7 -3 16 -2 19 1 4 3 -2 6 -13 5 -11 0 -14 -3 -6 -6z"/>
<path d="M1730 5296 c0 -7 31 -20 73 -30 29 -7 39 9 10 18 -42 11 -83 17 -83
12z"/>
<path d="M1920 5260 c20 -13 43 -13 35 0 -3 6 -16 10 -28 10 -18 0 -19 -2 -7
-10z"/>
<path d="M3210 5236 c0 -2 9 -6 20 -9 11 -3 18 -1 14 4 -5 9 -34 13 -34 5z"/>
<path d="M3320 5230 c20 -13 33 -13 25 0 -3 6 -14 10 -23 10 -15 0 -15 -2 -2
-10z"/>
<path d="M3274 5215 c10 -8 24 -11 29 -8 6 4 2 10 -9 14 -31 12 -40 9 -20 -6z"/>
<path d="M3660 5175 c0 -9 9 -15 25 -15 14 0 25 4 25 10 0 5 -7 7 -15 4 -8 -4
-15 -1 -15 5 0 6 -4 11 -10 11 -5 0 -10 -7 -10 -15z"/>
<path d="M2268 5168 c5 -5 16 -8 23 -6 8 3 3 7 -10 11 -17 4 -21 3 -13 -5z"/>
<path d="M3290 5160 c-8 -5 -10 -10 -5 -10 6 0 17 5 25 10 8 5 11 10 5 10 -5
0 -17 -5 -25 -10z"/>
<path d="M3508 5163 c7 -3 16 -2 19 1 4 3 -2 6 -13 5 -11 0 -14 -3 -6 -6z"/>
<path d="M3175 5110 c3 -5 18 -10 33 -9 24 0 25 1 7 9 -28 12 -47 12 -40 0z"/>
<path d="M3630 5093 c-8 -4 -21 -12 -28 -20 -22 -21 6 -16 35 7 25 20 23 24
-7 13z"/>
<path d="M3750 5030 c0 -5 5 -10 10 -10 6 0 10 5 10 10 0 6 -4 10 -10 10 -5 0
-10 -4 -10 -10z"/>
<path d="M1735 5020 c3 -5 8 -10 11 -10 2 0 4 5 4 10 0 6 -5 10 -11 10 -5 0
-7 -4 -4 -10z"/>
<path d="M3568 5023 c7 -3 16 -2 19 1 4 3 -2 6 -13 5 -11 0 -14 -3 -6 -6z"/>
<path d="M3648 5023 c7 -3 16 -2 19 1 4 3 -2 6 -13 5 -11 0 -14 -3 -6 -6z"/>
<path d="M1266 4990 c5 -5 30 -12 54 -14 l45 -5 -35 14 c-42 16 -78 19 -64 5z"/>
<path d="M1775 4993 c15 -15 65 -25 65 -13 0 5 -9 10 -19 10 -11 0 -28 3 -38
6 -12 5 -15 4 -8 -3z"/>
<path d="M3770 4952 c0 -13 47 -28 57 -18 4 3 -3 6 -13 6 -11 0 -25 5 -32 12
-9 9 -12 9 -12 0z"/>
<path d="M3845 4930 c3 -5 11 -10 16 -10 6 0 7 5 4 10 -3 6 -11 10 -16 10 -6
0 -7 -4 -4 -10z"/>
<path d="M1765 4920 c11 -5 27 -9 35 -9 9 0 8 4 -5 9 -11 5 -27 9 -35 9 -9 0
-8 -4 5 -9z"/>
<path d="M3900 4920 c0 -5 10 -10 23 -10 18 0 19 2 7 10 -19 13 -30 13 -30 0z"/>
<path d="M1848 4893 c7 -3 16 -2 19 1 4 3 -2 6 -13 5 -11 0 -14 -3 -6 -6z"/>
<path d="M3490 4890 c-12 -8 -9 -10 13 -10 15 0 27 5 27 10 0 13 -20 13 -40 0z"/>
<path d="M3928 4873 c7 -3 16 -2 19 1 4 3 -2 6 -13 5 -11 0 -14 -3 -6 -6z"/>
<path d="M1290 4855 c33 -19 45 -19 26 0 -8 8 -23 15 -33 15 -14 -1 -13 -4 7
-15z"/>
<path d="M1518 4863 c7 -3 16 -2 19 1 4 3 -2 6 -13 5 -11 0 -14 -3 -6 -6z"/>
<path d="M2090 4866 c0 -2 9 -6 20 -9 11 -3 18 -1 14 4 -5 9 -34 13 -34 5z"/>
<path d="M3810 4856 c0 -2 9 -6 20 -9 11 -3 18 -1 14 4 -5 9 -34 13 -34 5z"/>
<path d="M4028 4853 c7 -3 16 -2 19 1 4 3 -2 6 -13 5 -11 0 -14 -3 -6 -6z"/>
<path d="M1165 4800 c3 -5 16 -10 28 -10 18 0 19 2 7 10 -20 13 -43 13 -35 0z"/>
<path d="M1275 4800 c-4 -6 11 -10 37 -9 36 1 39 2 18 9 -36 11 -48 11 -55 0z"/>
<path d="M3720 4780 c0 -5 5 -10 11 -10 5 0 7 5 4 10 -3 6 -8 10 -11 10 -2 0
-4 -4 -4 -10z"/>
<path d="M2200 4770 c0 -5 9 -10 21 -10 11 0 17 5 14 10 -3 6 -13 10 -21 10
-8 0 -14 -4 -14 -10z"/>
<path d="M3715 4740 c3 -5 11 -10 16 -10 6 0 7 5 4 10 -3 6 -11 10 -16 10 -6
0 -7 -4 -4 -10z"/>
<path d="M2505 4700 c11 -5 27 -9 35 -9 9 0 8 4 -5 9 -11 5 -27 9 -35 9 -9 0
-8 -4 5 -9z"/>
<path d="M2678 4703 c7 -3 16 -2 19 1 4 3 -2 6 -13 5 -11 0 -14 -3 -6 -6z"/>
<path d="M2718 4693 c7 -3 16 -2 19 1 4 3 -2 6 -13 5 -11 0 -14 -3 -6 -6z"/>
<path d="M3876 4635 c4 -8 10 -12 15 -9 11 6 2 24 -11 24 -5 0 -7 -7 -4 -15z"/>
<path d="M1108 4623 c7 -3 16 -2 19 1 4 3 -2 6 -13 5 -11 0 -14 -3 -6 -6z"/>
<path d="M1424 4611 c4 -5 3 -11 -1 -14 -5 -2 -3 -2 4 -1 7 2 15 -1 18 -6 9
-14 112 -60 134 -60 12 0 21 -4 21 -10 0 -5 5 -10 11 -10 22 0 -5 22 -51 42
-27 12 -47 25 -44 29 2 4 -11 11 -31 15 -19 3 -38 10 -41 15 -3 5 -10 9 -15 9
-6 0 -8 -4 -5 -9z"/>
<path d="M3528 4608 c5 -5 16 -8 23 -6 8 3 3 7 -10 11 -17 4 -21 3 -13 -5z"/>
<path d="M3248 4603 c7 -3 16 -2 19 1 4 3 -2 6 -13 5 -11 0 -14 -3 -6 -6z"/>
<path d="M1307 4584 c2 -6 13 -10 24 -7 23 6 16 22 -10 20 -10 0 -17 -6 -14
-13z"/>
<path d="M4070 4580 c20 -13 33 -13 25 0 -3 6 -14 10 -23 10 -15 0 -15 -2 -2
-10z"/>
<path d="M3265 4540 c27 -12 43 -12 25 0 -8 5 -22 9 -30 9 -10 0 -8 -3 5 -9z"/>
<path d="M1320 4535 c0 -6 68 -40 99 -50 38 -12 15 14 -33 36 -40 18 -66 24
-66 14z"/>
<path d="M4000 4510 c0 -5 5 -10 10 -10 6 0 10 5 10 10 0 6 -4 10 -10 10 -5 0
-10 -4 -10 -10z"/>
<path d="M1324 4491 c4 -6 16 -11 27 -11 10 0 19 -4 19 -8 0 -8 61 -34 67 -29
4 5 -67 43 -96 52 -16 5 -21 4 -17 -4z"/>
<path d="M4020 4486 c0 -2 7 -7 16 -10 8 -3 12 -2 9 4 -6 10 -25 14 -25 6z"/>
<path d="M1460 4473 c8 -4 21 -12 28 -20 7 -7 23 -13 35 -13 17 0 14 4 -16 20
-20 11 -43 20 -49 19 -8 0 -8 -3 2 -6z"/>
<path d="M4060 4461 c0 -8 83 -42 99 -41 8 1 -82 49 -91 50 -5 0 -8 -4 -8 -9z"/>
<path d="M3870 4420 c8 -5 20 -10 25 -10 6 0 3 5 -5 10 -8 5 -19 10 -25 10 -5
0 -3 -5 5 -10z"/>
<path d="M4060 4420 c8 -5 22 -9 30 -9 10 0 8 3 -5 9 -27 12 -43 12 -25 0z"/>
<path d="M4120 4366 c0 -2 9 -6 20 -9 11 -3 18 -1 14 4 -5 9 -34 13 -34 5z"/>
<path d="M4188 4343 c7 -3 16 -2 19 1 4 3 -2 6 -13 5 -11 0 -14 -3 -6 -6z"/>
<path d="M4338 4313 c-5 -7 -7 -16 -4 -22 3 -5 0 -12 -6 -14 -7 -3 2 -3 20 0
36 6 43 -4 10 -16 -21 -8 -21 -8 5 -13 14 -3 24 -1 21 4 -6 9 26 4 84 -14 21
-6 31 -15 28 -23 -2 -7 6 -23 19 -35 l23 -22 1 75 1 75 -48 8 c-73 11 -143 10
-154 -3z m29 -9 c-3 -3 -12 -4 -19 -1 -8 3 -5 6 6 6 11 1 17 -2 13 -5z m150
-60 c-3 -3 -12 -4 -19 -1 -8 3 -5 6 6 6 11 1 17 -2 13 -5z"/>
<path d="M4218 4313 c7 -3 16 -2 19 1 4 3 -2 6 -13 5 -11 0 -14 -3 -6 -6z"/>
<path d="M1735 4278 c-19 -16 -33 -33 -30 -38 2 -4 25 -13 50 -20 45 -12 47
-12 75 15 17 16 30 32 30 36 0 4 -20 14 -45 23 l-45 15 -35 -31z"/>
<path d="M3680 4299 c0 -5 5 -7 10 -4 6 3 10 8 10 11 0 2 -4 4 -10 4 -5 0 -10
-5 -10 -11z"/>
<path d="M4118 4303 c7 -3 16 -2 19 1 4 3 -2 6 -13 5 -11 0 -14 -3 -6 -6z"/>
<path d="M3937 4234 c-10 -11 3 -24 23 -24 13 0 17 5 14 15 -6 15 -26 20 -37
9z"/>
<path d="M4180 4230 c20 -13 43 -13 35 0 -3 6 -16 10 -28 10 -18 0 -19 -2 -7
-10z"/>
<path d="M4285 4230 c7 -12 45 -14 45 -2 0 4 -11 9 -26 10 -14 1 -23 -2 -19
-8z"/>
<path d="M4405 4230 c-3 -6 1 -7 9 -4 18 7 21 14 7 14 -6 0 -13 -4 -16 -10z"/>
<path d="M4230 4212 c-26 -12 -21 -30 12 -41 44 -16 58 -13 26 5 -32 17 -36
31 -10 37 11 3 12 5 2 5 -8 0 -22 -2 -30 -6z"/>
<path d="M4435 4189 c32 -11 64 -18 70 -16 11 4 -95 37 -117 36 -7 0 14 -9 47
-20z"/>
<path d="M4320 4196 c0 -2 7 -6 15 -10 8 -3 15 -1 15 4 0 6 -7 10 -15 10 -8 0
-15 -2 -15 -4z"/>
<path d="M4375 4181 l20 -8 -20 -5 c-19 -5 -18 -6 2 -7 12 0 24 3 27 8 6 9
-17 22 -37 20 -7 0 -3 -4 8 -8z"/>
<path d="M4180 4170 c8 -5 22 -9 30 -9 10 0 8 3 -5 9 -27 12 -43 12 -25 0z"/>
<path d="M4438 4164 c6 -3 9 -10 6 -15 -3 -6 6 -7 23 -4 19 5 24 4 15 -3 -11
-7 -10 -10 3 -16 28 -11 55 -7 55 8 0 8 -8 17 -17 20 -28 8 -99 17 -85 10z"/>
<path d="M4160 4150 c8 -5 24 -10 34 -10 26 0 18 6 -19 14 -22 5 -26 4 -15 -4z"/>
<path d="M4368 4143 c7 -3 16 -2 19 1 4 3 -2 6 -13 5 -11 0 -14 -3 -6 -6z"/>
<path d="M4297 4129 c7 -7 15 -10 18 -7 3 3 -2 9 -12 12 -14 6 -15 5 -6 -5z"/>
<path d="M4430 4126 c28 -17 50 -21 35 -7 -6 5 -21 12 -35 15 l-25 7 25 -15z"/>
<path d="M4367 4099 c7 -7 15 -10 18 -7 3 3 -2 9 -12 12 -14 6 -15 5 -6 -5z"/>
<path d="M4465 4091 c22 -11 47 -19 55 -19 17 0 -32 22 -70 32 -14 3 -7 -3 15
-13z"/>
<path d="M4430 4080 c8 -5 20 -10 25 -10 6 0 3 5 -5 10 -8 5 -19 10 -25 10 -5
0 -3 -5 5 -10z"/>
<path d="M4188 4048 c-27 -6 -48 -13 -48 -17 1 -16 38 -52 58 -56 20 -4 48 22
76 73 8 14 -16 14 -86 0z"/>
<path d="M4291 4026 c2 -3 40 -19 84 -37 44 -17 97 -40 118 -51 37 -19 61 -18
41 1 -5 5 -59 28 -120 50 -105 39 -133 47 -123 37z"/>
<path d="M4280 4000 c0 -5 6 -10 13 -10 8 0 7 -4 -3 -10 -8 -5 -10 -10 -5 -10
6 0 16 4 24 9 11 7 9 11 -8 20 -14 8 -21 8 -21 1z"/>
<path d="M4471 3986 c15 -13 69 -35 69 -27 0 5 -14 14 -31 20 -33 11 -45 14
-38 7z"/>
<path d="M2030 3853 l-125 -128 128 125 c118 116 132 130 124 130 -1 0 -58
-57 -127 -127z"/>
<path d="M4435 3940 c27 -12 43 -12 25 0 -8 5 -22 9 -30 9 -10 0 -8 -3 5 -9z"/>
<path d="M4196 3913 c-6 -14 -5 -15 5 -6 7 7 10 15 7 18 -3 3 -9 -2 -12 -12z"/>
<path d="M4500 3910 c12 -8 12 -10 1 -10 -8 0 -12 -2 -10 -5 3 -2 15 -2 28 2
17 4 19 8 9 14 -7 5 -20 9 -28 9 -13 0 -13 -1 0 -10z"/>
<path d="M4406 3901 c5 -5 20 -12 34 -15 l25 -7 -25 15 c-28 17 -50 21 -34 7z"/>
<path d="M4340 3872 c0 -6 25 -23 56 -38 31 -15 65 -35 76 -46 27 -27 68 -41
68 -24 0 20 -18 32 -83 56 -31 12 -57 26 -57 31 0 5 -8 9 -18 9 -10 0 -23 5
-30 12 -9 9 -12 9 -12 0z"/>
<path d="M4490 3870 c0 -8 24 -20 41 -20 6 0 8 4 5 9 -8 12 -46 21 -46 11z"/>
<path d="M3200 3785 c-17 -20 -7 -29 53 -45 43 -11 50 -11 65 3 19 20 11 30
-37 46 -46 15 -66 14 -81 -4z"/>
<path d="M3482 3708 c-22 -22 -12 -36 38 -53 56 -19 80 -15 80 13 0 13 -12 22
-41 31 -23 7 -46 14 -53 17 -6 2 -17 -1 -24 -8z"/>
<path d="M4445 3657 c11 -8 31 -17 45 -20 l25 -6 -25 19 c-14 11 -34 20 -45
20 -19 0 -19 0 0 -13z"/>
<path d="M4408 3615 c-2 -3 -26 -6 -52 -6 -59 -3 -40 -15 36 -24 32 -4 55 -11
52 -16 -3 -5 2 -6 11 -3 25 10 1 27 -37 27 l-33 0 30 13 c17 7 23 13 14 14 -9
0 -18 -2 -21 -5z"/>
<path d="M4476 3601 c5 -5 23 -12 39 -16 30 -6 30 -6 -4 10 -38 17 -49 19 -35
6z"/>
<path d="M4515 3560 c3 -5 10 -10 16 -10 5 0 9 5 9 10 0 6 -7 10 -16 10 -8 0
-12 -4 -9 -10z"/>
<path d="M4405 3550 c11 -5 27 -9 35 -9 13 -1 13 0 0 9 -8 5 -24 9 -35 9 l-20
0 20 -9z"/>
</g>
</svg>
