<?xml version="1.0" standalone="no"?>
<!DOCTYPE svg PUBLIC "-//W3C//DTD SVG 20010904//EN"
 "http://www.w3.org/TR/2001/REC-SVG-20010904/DTD/svg10.dtd">
<svg version="1.0" xmlns="http://www.w3.org/2000/svg"
 width="958.000000pt" height="528.000000pt" viewBox="0 0 958.000000 528.000000"
 preserveAspectRatio="xMidYMid meet">

<g transform="translate(0.000000,528.000000) scale(0.100000,-0.100000)"
fill="#000000" stroke="none">
<path d="M1 5108 c1 -128 3 -163 10 -134 15 61 68 152 115 195 47 44 125 87
181 100 27 6 -11 9 -134 10 l-173 1 1 -172z"/>
<path d="M9273 5269 c56 -13 134 -56 181 -100 47 -43 100 -134 115 -195 7 -29
9 6 10 134 l1 172 -172 -1 c-124 -1 -162 -4 -135 -10z"/>
<path d="M4095 5220 c3 -5 8 -10 11 -10 2 0 4 5 4 10 0 6 -5 10 -11 10 -5 0
-7 -4 -4 -10z"/>
<path d="M4170 5210 c0 -5 5 -10 10 -10 6 0 10 5 10 10 0 6 -4 10 -10 10 -5 0
-10 -4 -10 -10z"/>
<path d="M5601 4933 l-34 -4 6 -151 c4 -83 7 -221 7 -306 l0 -155 56 7 c117
14 124 30 124 288 -1 226 -8 274 -45 305 -26 22 -41 25 -114 16z m83 -79 c3
-9 6 -114 6 -234 0 -190 -2 -219 -16 -224 -9 -3 -20 -4 -25 0 -5 3 -9 110 -9
240 0 223 1 234 19 234 10 0 22 -7 25 -16z"/>
<path d="M5447 4921 l-59 -6 1 -275 c1 -151 4 -290 8 -309 6 -33 6 -33 51 -27
25 3 58 6 73 6 27 0 29 3 29 41 l0 41 -42 -4 -43 -3 -3 104 c-3 113 0 121 51
121 25 0 27 3 27 39 l0 39 -40 -5 -40 -6 -2 52 c-5 124 -7 115 37 121 38 5 40
7 40 40 0 39 -1 40 -88 31z"/>
<path d="M5296 4902 c-2 -4 -10 -53 -17 -110 -7 -56 -15 -99 -18 -96 -3 3 -15
49 -27 102 -20 97 -20 97 -52 100 -40 4 -40 0 -8 -133 38 -160 38 -167 8 -330
-28 -145 -28 -150 -10 -153 37 -7 44 6 62 109 10 57 20 111 23 119 3 8 13 -31
23 -87 10 -56 20 -109 23 -118 8 -19 56 -20 63 -1 3 7 -8 84 -25 170 -29 149
-29 160 -16 229 7 39 16 102 20 140 l7 67 -25 0 c-14 0 -28 -3 -31 -8z"/>
<path d="M4983 4890 c-12 -5 -29 -23 -38 -40 -14 -26 -15 -62 -8 -290 8 -250
9 -260 30 -282 43 -42 130 -23 154 34 16 39 6 501 -11 540 -20 42 -75 59 -127
38z m71 -112 c3 -29 6 -141 6 -249 0 -161 -3 -198 -14 -202 -8 -3 -19 0 -24 6
-11 14 -26 480 -15 490 3 4 14 7 23 7 13 0 19 -12 24 -52z"/>
<path d="M4700 4858 c-2 -77 2 -578 4 -593 3 -18 10 -20 64 -18 114 3 135 34
130 190 -3 107 -8 121 -52 136 -6 2 1 14 17 26 26 22 27 26 27 114 0 74 -4 98
-20 125 -19 32 -21 32 -95 32 -53 0 -75 -4 -75 -12z m109 -62 c8 -9 11 -45 9
-98 -3 -75 -5 -83 -23 -83 -18 0 -20 8 -23 84 -4 108 6 134 37 97z m9 -268 c8
-8 12 -46 12 -105 0 -80 -3 -94 -19 -102 -10 -6 -21 -7 -25 -4 -3 3 -6 55 -6
115 0 110 7 127 38 96z"/>
<path d="M5897 4254 c-3 -10 -9 -39 -12 -64 -4 -25 -20 -114 -36 -198 -33
-173 -36 -240 -14 -282 28 -54 96 -53 131 3 34 53 36 84 10 212 -13 66 -32
165 -41 220 -20 113 -30 139 -38 109z"/>
<path d="M5622 4239 l-23 -9 7 -292 c3 -161 8 -296 10 -299 2 -4 15 -4 29 -1
l25 4 0 139 c0 132 1 139 20 139 25 0 29 -19 33 -155 l2 -110 30 0 30 0 -3
130 c-4 154 -6 161 -40 180 -19 10 -22 14 -10 15 34 0 48 39 48 137 0 80 -3
96 -20 113 -22 22 -95 27 -138 9z m96 -129 c4 -83 -3 -110 -28 -110 -18 0 -20
7 -20 83 0 87 4 100 30 95 11 -2 16 -19 18 -68z"/>
<path d="M5497 4229 c-38 -4 -70 -9 -72 -11 -2 -2 -1 -139 3 -306 l5 -303 26
5 c14 3 47 8 74 11 46 6 47 7 47 40 0 33 -1 34 -42 37 l-43 3 0 105 0 105 40
5 c38 5 40 7 40 40 0 34 -1 35 -40 35 l-40 0 0 80 0 80 40 5 c35 4 40 8 43 34
2 16 0 32 -5 35 -4 4 -39 4 -76 0z"/>
<path d="M5270 4211 l-65 -6 -3 -37 c-3 -35 -2 -37 30 -40 l33 -3 3 -262 2
-263 36 0 37 0 -4 267 -4 268 30 5 c27 5 30 9 30 40 0 32 -3 35 -30 36 -16 1
-59 -2 -95 -5z"/>
<path d="M5100 4191 l-35 -6 -7 -80 c-12 -125 -38 -482 -38 -510 0 -23 4 -26
28 -23 26 3 27 6 36 86 9 80 10 82 36 82 24 0 28 -5 34 -37 3 -21 6 -55 6 -75
0 -37 1 -38 35 -38 30 0 35 3 35 24 0 30 -37 397 -50 496 -5 41 -10 78 -10 83
0 8 -17 7 -70 -2z m36 -265 c7 -104 6 -106 -15 -106 -24 0 -25 9 -14 160 8
115 19 94 29 -54z"/>
<path d="M4967 4143 c-4 -21 -9 -111 -13 -200 -4 -90 -10 -163 -14 -163 -3 0
-12 88 -19 195 l-14 195 -37 0 c-36 0 -38 -1 -44 -42 -3 -24 -9 -106 -12 -183
-7 -147 -23 -220 -24 -105 0 36 -5 123 -11 193 l-12 128 -36 -3 c-31 -3 -36
-6 -35 -28 3 -94 48 -577 54 -583 14 -16 78 4 84 26 3 11 11 113 17 226 15
237 22 229 39 -44 6 -104 13 -192 15 -195 2 -3 19 -4 38 -2 l35 4 7 91 c3 51
13 173 21 272 19 251 19 255 -10 255 -19 0 -24 -6 -29 -37z"/>
<path d="M4879 3475 c-33 -18 -49 -61 -49 -135 0 -75 13 -109 77 -203 49 -72
53 -82 53 -136 0 -39 -5 -63 -15 -71 -25 -21 -35 0 -35 76 0 83 -10 96 -57 75
-25 -11 -25 -13 -21 -96 3 -51 10 -90 18 -100 35 -42 102 -40 150 5 29 27 30
31 30 118 l0 91 -61 91 c-45 67 -63 104 -67 135 -6 59 4 95 27 95 25 0 31 -19
31 -91 l0 -60 33 3 32 3 3 65 c4 77 -2 104 -28 130 -24 24 -82 26 -121 5z"/>
<path d="M4717 3453 c-2 -5 -2 -142 1 -305 l4 -298 34 0 34 0 0 305 0 305 -34
0 c-19 0 -37 -3 -39 -7z"/>
<path d="M5850 2913 c-14 -2 -40 -6 -58 -9 l-33 -5 6 -292 c3 -160 8 -293 9
-295 2 -2 15 0 30 4 l26 6 0 133 c0 74 4 136 9 140 5 3 17 -2 25 -11 13 -12
16 -39 16 -135 0 -124 2 -129 44 -113 13 5 16 27 16 133 0 130 -11 171 -45
171 -8 0 -1 12 16 29 27 28 29 34 29 113 0 111 -19 139 -90 131z m18 -75 c15
-15 16 -122 2 -149 -6 -10 -17 -19 -25 -19 -12 0 -15 17 -15 83 0 96 8 115 38
85z"/>
<path d="M5657 2887 l-67 -9 2 -297 3 -296 42 3 c83 7 98 15 98 53 0 33 -1 34
-37 31 l-37 -3 -3 96 c-2 54 -1 100 2 104 3 4 21 12 40 17 29 8 35 15 38 41 3
31 2 32 -39 35 l-42 3 -4 66 c-5 73 2 85 52 91 25 2 31 8 33 32 2 16 0 31 -5
35 -4 4 -38 3 -76 -2z"/>
<path d="M3650 2875 c0 -9 5 -15 11 -13 6 2 11 8 11 13 0 5 -5 11 -11 13 -6 2
-11 -4 -11 -13z"/>
<path d="M3949 2863 c-8 -19 -10 -97 -6 -243 2 -118 2 -226 -2 -240 l-7 -25
-18 34 c-16 30 -17 43 -7 102 12 72 15 279 5 317 -10 34 -32 26 -40 -15 -4
-20 -4 -102 0 -182 9 -185 9 -190 -10 -220 -16 -23 -17 -24 -30 -6 -10 14 -12
33 -7 70 10 61 9 160 0 198 -8 30 -31 36 -41 11 -8 -22 -6 -134 4 -164 5 -16
7 7 6 62 -1 89 12 118 26 56 10 -43 -2 -175 -13 -156 -6 8 -9 -1 -9 -28 0 -36
-13 -64 -31 -64 -4 0 -9 69 -11 153 -3 120 -7 159 -21 185 -16 29 -20 31 -32
18 -8 -8 -15 -24 -15 -35 0 -11 -4 -23 -10 -26 -12 -7 -11 -198 1 -205 5 -3
13 -30 18 -60 8 -46 8 -40 3 30 -9 112 -6 260 6 272 23 23 35 -25 39 -165 2
-78 6 -152 9 -164 6 -29 25 -29 42 -2 l13 20 18 -23 c16 -19 21 -20 35 -9 9 7
16 20 16 27 0 25 15 15 27 -17 14 -36 37 -34 41 4 4 29 32 27 32 -3 0 -25 26
-43 52 -37 14 4 26 0 34 -11 12 -16 15 -15 36 6 21 20 23 32 23 117 0 81 2 95
18 99 9 2 17 11 17 19 0 10 -7 13 -20 10 -15 -4 -20 1 -25 23 -14 65 -35 78
-62 38 -15 -23 -18 -50 -19 -154 0 -104 -3 -125 -16 -128 -35 -7 -48 77 -32
205 14 114 17 261 5 302 -10 35 -29 37 -42 4z m36 -30 c6 -27 -2 -232 -12
-266 -2 -9 -9 -15 -14 -12 -10 7 -13 225 -3 274 8 38 20 40 29 4z m-75 -143
c0 -52 -3 -113 -7 -135 -6 -36 -7 -38 -14 -15 -9 32 -11 217 -2 248 12 46 23
-1 23 -98z m187 -130 c-3 -30 -13 -82 -23 -115 l-18 -60 -9 40 c-10 45 -3 134
14 183 9 28 14 31 26 20 12 -9 14 -26 10 -68z m18 -156 c-6 -45 -29 -74 -45
-58 -9 9 11 82 37 144 10 23 16 -37 8 -86z"/>
<path d="M5440 2856 l-65 -11 0 -35 c0 -32 2 -35 30 -35 l30 0 3 -257 2 -258
23 0 c50 0 50 0 46 271 l-4 253 33 13 c28 11 33 18 30 41 -4 33 -28 36 -128
18z"/>
<path d="M3683 2810 c0 -30 2 -43 4 -27 2 15 2 39 0 55 -2 15 -4 2 -4 -28z"/>
<path d="M5227 2828 l-78 -10 3 -36 c3 -33 6 -36 33 -37 l30 0 3 -262 c1 -151
6 -263 12 -263 5 0 21 5 36 10 l27 11 -4 257 -4 257 30 5 c27 5 30 9 30 40 0
41 -4 42 -118 28z"/>
<path d="M5035 2803 c-16 -2 -40 -6 -53 -9 l-23 -5 2 -280 c1 -155 4 -290 7
-301 4 -18 10 -19 61 -13 98 11 101 13 101 52 l0 34 -47 -3 -48 -3 0 105 0
105 43 9 c39 8 42 11 42 42 0 34 -1 34 -45 34 l-46 0 3 77 3 77 43 9 c40 8 42
10 42 43 0 37 -3 38 -85 27z"/>
<path d="M3653 2750 c0 -25 2 -35 4 -22 2 12 2 32 0 45 -2 12 -4 2 -4 -23z"/>
<path d="M4738 2763 c-17 -4 -18 -27 -18 -305 l0 -301 63 5 c113 9 137 43 137
190 0 79 -3 98 -18 111 -10 10 -24 17 -30 17 -19 0 -14 13 16 36 26 21 27 25
27 117 0 123 -11 138 -99 136 -34 -1 -69 -3 -78 -6z m102 -79 c13 -33 13 -120
0 -145 -6 -10 -20 -19 -30 -19 -18 0 -20 7 -20 88 0 49 3 92 7 95 14 15 34 6
43 -19z m5 -338 c0 -82 -3 -101 -17 -110 -27 -16 -33 -1 -37 95 -4 105 1 122
31 117 22 -3 23 -7 23 -102z"/>
<path d="M3662 2410 c0 -14 2 -19 5 -12 2 6 2 18 0 25 -3 6 -5 1 -5 -13z"/>
<path d="M5986 2408 c-19 -29 -12 -58 15 -58 26 0 37 46 16 67 -13 14 -17 13
-31 -9z"/>
<path d="M3652 2360 c0 -14 2 -19 5 -12 2 6 2 18 0 25 -3 6 -5 1 -5 -13z"/>
<path d="M5387 2169 c17 -5 43 -23 56 -39 14 -16 27 -25 29 -19 5 16 39 -1 48
-25 7 -17 9 -14 9 16 1 28 -4 40 -21 49 -18 10 -24 8 -35 -7 -9 -12 -16 -15
-21 -8 -13 20 -56 44 -77 43 -13 -1 -9 -4 12 -10z"/>
<path d="M5266 2161 c-4 -5 3 -7 14 -4 23 6 26 13 6 13 -8 0 -17 -4 -20 -9z"/>
<path d="M3410 2130 c0 -25 4 -30 23 -30 12 0 33 -7 45 -16 20 -14 24 -14 44
0 16 12 18 16 7 16 -9 0 -36 13 -60 30 -24 16 -47 30 -51 30 -5 0 -8 -13 -8
-30z"/>
<path d="M3750 2127 c0 -8 -9 -24 -20 -37 -26 -29 -26 -44 0 -30 32 17 56 80
30 80 -5 0 -10 -6 -10 -13z"/>
<path d="M5196 2103 c-35 -43 -66 -111 -66 -143 0 -24 1 -23 17 8 10 20 25 34
42 38 43 10 47 12 19 13 -16 1 -28 3 -28 5 0 3 13 18 28 35 38 42 112 54 135
21 10 -15 16 -18 20 -8 6 17 28 -10 59 -72 17 -33 23 -63 23 -111 l0 -66 27
46 c34 57 54 80 95 109 39 28 76 28 115 1 16 -12 31 -19 34 -16 10 9 -64 47
-92 47 -33 0 -116 -53 -130 -83 -5 -11 -15 -23 -23 -25 -8 -3 -11 0 -7 6 3 6
1 34 -5 64 -26 123 -75 169 -176 166 -56 -1 -63 -4 -87 -35z"/>
<path d="M4066 2115 c-3 -9 -5 -33 -5 -53 2 -32 3 -33 6 -8 3 17 12 30 24 33
12 3 19 12 17 22 -4 22 -34 26 -42 6z"/>
<path d="M4205 2093 c-11 -3 -24 -9 -29 -14 -5 -5 5 -4 23 1 18 5 47 7 64 4
26 -3 28 -2 12 5 -22 10 -39 11 -70 4z"/>
<path d="M3562 2069 c-23 -12 -56 -38 -73 -58 -40 -49 -79 -174 -79 -257 0
-75 16 -85 25 -16 17 119 35 186 62 221 42 55 85 91 109 91 50 0 73 -25 32
-33 l-23 -4 23 -2 c12 0 22 -3 22 -5 0 -2 -18 -22 -40 -44 -22 -22 -40 -46
-40 -53 0 -8 9 -3 20 11 19 25 19 25 35 5 16 -19 16 -19 4 4 -10 21 -9 26 7
38 36 27 65 12 98 -52 l16 -30 0 28 c0 15 2 27 5 27 3 0 27 -14 55 -31 46 -28
55 -30 117 -26 38 3 81 8 97 12 19 5 31 4 36 -5 6 -9 10 -6 15 10 4 12 2 27
-4 33 -6 6 -11 20 -11 30 0 25 -31 77 -46 77 -12 0 -24 -22 -24 -45 0 -8 12
-20 27 -27 46 -22 38 -35 -24 -42 -32 -3 -74 -8 -93 -12 -31 -5 -43 0 -90 35
-30 22 -58 48 -63 57 -11 19 1 34 12 15 11 -17 23 2 15 23 -7 19 -18 20 -43 4
-15 -9 -27 -7 -64 15 -55 32 -60 33 -115 6z"/>
<path d="M5550 2058 c-22 -36 -26 -58 -10 -58 6 0 10 5 10 10 0 6 12 22 26 35
14 13 23 29 19 34 -11 19 -25 12 -45 -21z"/>
<path d="M5238 2053 c7 -3 16 -2 19 1 4 3 -2 6 -13 5 -11 0 -14 -3 -6 -6z"/>
<path d="M3450 2030 c0 -5 5 -10 10 -10 6 0 10 5 10 10 0 6 -4 10 -10 10 -5 0
-10 -4 -10 -10z"/>
<path d="M4210 2002 c-19 -9 -45 -32 -57 -50 -29 -44 -47 -134 -38 -191 4 -25
9 -58 10 -73 2 -27 21 -58 36 -58 4 0 9 15 11 33 3 35 11 37 80 15 50 -15 73
-61 61 -121 l-9 -42 -58 -3 c-35 -2 -63 2 -72 9 -10 8 -18 9 -25 2 -6 -6 1
-24 21 -51 27 -37 35 -42 71 -42 80 0 123 88 105 217 -7 55 -40 131 -64 149
-14 11 -15 15 -3 23 9 6 10 10 2 15 -18 11 -67 -3 -87 -25 -12 -14 -20 -16
-25 -8 -4 7 -10 -1 -14 -20 -11 -52 -27 -49 -19 5 18 119 79 197 139 174 36
-14 166 -146 199 -203 15 -26 33 -47 39 -47 6 0 19 -7 29 -17 16 -14 20 -15
36 -1 72 64 202 82 334 48 46 -12 106 -32 133 -44 82 -39 212 -69 297 -69 81
0 95 -6 122 -58 15 -30 93 -69 137 -69 58 0 145 36 212 87 34 26 64 50 67 53
53 53 139 100 209 114 30 6 56 16 58 22 9 27 -87 24 -158 -4 -15 -6 -80 -53
-144 -105 -123 -99 -140 -107 -235 -107 -63 0 -88 17 -131 86 -19 31 -19 35
-4 64 9 17 23 34 31 37 7 3 14 10 14 17 0 16 60 87 69 81 5 -2 19 7 31 20 28
30 40 31 73 5 33 -26 52 -7 40 41 -8 29 -13 32 -47 33 -21 1 -42 -5 -48 -11
-6 -7 -16 -13 -24 -13 -14 0 -75 -77 -137 -171 -47 -72 -76 -84 -188 -83 -78
1 -92 5 -175 44 -102 50 -245 100 -258 92 -5 -3 1 -9 14 -14 12 -5 20 -11 17
-15 -10 -9 -67 18 -64 31 5 27 -155 -3 -209 -39 -20 -14 -43 -25 -51 -25 -25
0 -74 44 -116 105 -52 76 -118 141 -164 160 -42 18 -31 18 -73 -3z m75 -256
c7 -11 15 -39 19 -61 3 -22 3 -34 0 -27 -8 17 -78 52 -104 52 -23 0 -26 18 -7
42 25 32 70 29 92 -6z m792 -32 c-3 -3 -12 -4 -19 -1 -8 3 -5 6 6 6 11 1 17
-2 13 -5z m-797 -224 c0 -5 -15 -10 -32 -9 -31 1 -32 1 -8 9 35 11 40 11 40 0z"/>
<path d="M3569 1973 c-13 -16 -12 -17 4 -4 9 7 17 15 17 17 0 8 -8 3 -21 -13z"/>
<path d="M5998 1912 c-10 -4 18 -7 62 -7 44 0 72 3 62 7 -9 4 -37 7 -62 7 -25
0 -53 -3 -62 -7z"/>
<path d="M4476 1867 c13 -26 21 -32 47 -32 28 0 32 -3 30 -25 -1 -14 1 -19 4
-12 2 7 21 24 41 38 34 24 31 26 -14 8 -10 -5 -17 0 -21 15 -4 16 -13 21 -39
21 -18 0 -36 5 -39 10 -15 25 -23 7 -9 -23z"/>
<path d="M3580 1882 c0 -9 72 -44 78 -37 2 2 -14 13 -37 25 -23 11 -41 17 -41
12z"/>
<path d="M4197 1865 c-15 -14 -27 -31 -27 -38 0 -6 7 -1 16 11 38 55 110 44
173 -26 l34 -37 -25 35 c-27 38 -91 80 -123 80 -11 0 -33 -11 -48 -25z"/>
<path d="M3687 1869 c7 -7 15 -10 18 -7 3 3 -2 9 -12 12 -14 6 -15 5 -6 -5z"/>
<path d="M4960 1860 c8 -5 22 -9 30 -9 10 0 8 3 -5 9 -27 12 -43 12 -25 0z"/>
<path d="M4067 1833 c-3 -16 -1 -32 4 -37 5 -6 9 4 9 27 0 44 -6 48 -13 10z"/>
<path d="M5890 1850 c-9 -6 -10 -10 -3 -10 6 0 15 5 18 10 8 12 4 12 -15 0z"/>
<path d="M3750 1840 c8 -5 20 -10 25 -10 6 0 3 5 -5 10 -8 5 -19 10 -25 10 -5
0 -3 -5 5 -10z"/>
<path d="M5018 1843 c7 -3 16 -2 19 1 4 3 -2 6 -13 5 -11 0 -14 -3 -6 -6z"/>
<path d="M3970 1819 c-14 -6 -43 -14 -65 -19 -38 -7 -39 -8 -8 -9 18 -1 52 5
75 13 24 8 52 16 63 19 13 3 10 5 -10 5 -16 0 -41 -4 -55 -9z"/>
<path d="M3805 1810 c3 -5 18 -10 32 -10 32 0 28 5 -10 14 -19 4 -26 3 -22 -4z"/>
<path d="M4300 1811 c0 -10 29 -36 34 -30 1 2 -6 12 -16 22 -10 9 -18 13 -18
8z"/>
<path d="M3700 1801 c0 -6 -11 -11 -24 -11 -34 0 -86 -39 -112 -85 -34 -61
-18 -62 43 -1 65 65 82 72 120 53 40 -21 59 -45 88 -111 47 -105 29 -284 -29
-294 -12 -3 -16 0 -11 8 6 9 2 9 -14 0 l-22 -11 17 33 c29 56 34 96 18 156
-19 71 -46 102 -91 102 -39 0 -57 -23 -82 -106 l-17 -57 -34 31 c-49 45 -97
67 -116 52 -8 -7 -14 -21 -14 -31 0 -16 8 -19 46 -19 44 0 50 -4 118 -70 40
-38 80 -70 89 -70 9 0 26 -13 39 -30 12 -16 30 -32 39 -35 19 -6 59 10 71 29
5 7 48 9 125 7 129 -3 135 -5 209 -73 40 -37 48 -40 196 -68 180 -35 178 -35
178 -12 0 23 -104 52 -189 52 -73 0 -120 18 -181 69 -66 56 -84 63 -174 68
-137 7 -127 -2 -124 110 3 110 -3 104 109 107 48 1 72 -3 85 -15 11 -8 33 -23
49 -33 24 -14 23 -11 -10 18 -22 19 -55 38 -73 42 -30 6 -115 2 -150 -8 -13
-3 -57 91 -47 101 5 5 -52 59 -97 92 -16 11 -28 16 -28 10z m25 -207 c24 -25
42 -80 31 -91 -3 -3 -31 3 -61 15 -36 13 -52 15 -45 7 6 -7 31 -19 57 -27 25
-7 47 -18 50 -24 7 -18 -24 -84 -40 -84 -25 0 -107 61 -107 80 0 23 38 110 58
133 20 23 29 22 57 -9z"/>
<path d="M5199 1794 c-8 -10 -22 -14 -38 -11 -24 5 -25 4 -6 -9 25 -18 27 -18
48 11 20 28 17 34 -4 9z"/>
<path d="M5450 1780 c-6 -11 -8 -20 -6 -20 3 0 10 9 16 20 6 11 8 20 6 20 -3
0 -10 -9 -16 -20z"/>
<path d="M5380 1761 c-19 -15 -45 -31 -58 -35 -44 -14 -17 -15 38 -2 30 8 49
14 41 15 -11 1 -10 6 3 26 21 32 18 31 -24 -4z"/>
<path d="M4356 1737 c3 -10 9 -15 12 -12 3 3 0 11 -7 18 -10 9 -11 8 -5 -6z"/>
<path d="M5215 1740 c3 -5 10 -10 16 -10 5 0 9 5 9 10 0 6 -7 10 -16 10 -8 0
-12 -4 -9 -10z"/>
<path d="M5716 1719 c-61 -32 -91 -33 -120 -3 -9 8 -16 11 -16 5 0 -14 41 -41
64 -41 21 0 123 47 132 61 7 12 7 12 -60 -22z"/>
<path d="M3717 1723 c13 -2 30 -14 38 -26 8 -12 15 -17 15 -11 0 18 -35 44
-56 43 -15 -1 -15 -3 3 -6z"/>
<path d="M4090 1700 c0 -5 5 -10 10 -10 6 0 10 5 10 10 0 6 -4 10 -10 10 -5 0
-10 -4 -10 -10z"/>
<path d="M4371 1694 c0 -11 3 -14 6 -6 3 7 2 16 -1 19 -3 4 -6 -2 -5 -13z"/>
<path d="M3960 1679 c-14 -6 -43 -8 -65 -5 -34 4 -36 4 -15 -5 27 -11 117 -3
126 12 7 12 -14 11 -46 -2z"/>
<path d="M4431 1664 c0 -11 3 -14 6 -6 3 7 2 16 -1 19 -3 4 -6 -2 -5 -13z"/>
<path d="M5759 1653 c-13 -16 -12 -17 4 -4 16 13 21 21 13 21 -2 0 -10 -8 -17
-17z"/>
<path d="M4382 1630 c0 -14 2 -19 5 -12 2 6 2 18 0 25 -3 6 -5 1 -5 -13z"/>
<path d="M5534 1613 c11 -13 26 -23 35 -22 14 0 14 1 1 6 -8 3 -24 13 -35 22
-20 16 -20 16 -1 -6z"/>
<path d="M5690 1610 c-8 -5 -10 -10 -5 -10 6 0 17 5 25 10 8 5 11 10 5 10 -5
0 -17 -5 -25 -10z"/>
<path d="M4382 1554 c-3 -68 -29 -142 -58 -160 -15 -10 -50 -16 -98 -17 -47
-1 -69 -5 -59 -11 8 -4 49 -4 92 0 42 5 90 8 106 6 27 -2 28 -1 10 10 -11 6
-21 12 -22 13 -2 0 7 25 18 54 13 36 19 70 16 105 l-3 51 -2 -51z"/>
<path d="M5648 1593 c7 -3 16 -2 19 1 4 3 -2 6 -13 5 -11 0 -14 -3 -6 -6z"/>
<path d="M3811 1564 c0 -11 3 -14 6 -6 3 7 2 16 -1 19 -3 4 -6 -2 -5 -13z"/>
<path d="M5447 1533 c20 -34 73 -81 73 -65 0 5 -11 15 -25 22 -13 7 -27 21
-30 31 -3 9 -13 23 -22 30 -11 10 -10 5 4 -18z"/>
<path d="M3888 1513 c6 -2 18 -2 25 0 6 3 1 5 -13 5 -14 0 -19 -2 -12 -5z"/>
<path d="M3970 1494 c56 -17 62 -17 30 1 -14 8 -36 14 -50 14 -18 0 -12 -4 20
-15z"/>
<path d="M5058 1483 c7 -3 16 -2 19 1 4 3 -2 6 -13 5 -11 0 -14 -3 -6 -6z"/>
<path d="M5401 1459 c-1 -9 9 -24 22 -35 22 -19 22 -19 6 1 -9 11 -19 27 -22
35 -5 13 -6 13 -6 -1z"/>
<path d="M4437 1443 c-4 -3 -7 -13 -7 -22 1 -13 3 -13 11 2 11 19 8 33 -4 20z"/>
<path d="M5568 1443 c7 -3 16 -2 19 1 4 3 -2 6 -13 5 -11 0 -14 -3 -6 -6z"/>
<path d="M4989 1424 c-55 -17 -161 -119 -190 -183 -10 -23 -24 -41 -32 -41
-17 0 -29 -25 -83 -179 -24 -68 -56 -142 -71 -164 -16 -22 -35 -50 -43 -64
-12 -19 -22 -24 -47 -21 -18 2 -33 0 -33 -4 0 -4 13 -8 29 -8 16 0 36 -3 44
-6 8 -3 21 2 28 11 8 9 25 29 38 43 14 15 26 41 27 61 2 20 11 41 20 48 9 6
13 16 10 21 -9 15 17 82 32 82 11 0 12 3 3 13 -11 14 6 77 21 77 4 0 8 8 8 18
0 10 12 32 28 49 15 17 39 46 54 64 18 23 30 30 35 23 4 -6 24 -14 43 -17 89
-15 130 -24 142 -34 7 -6 37 -11 67 -12 29 -1 62 -6 73 -12 11 -6 22 -8 26 -5
10 10 -32 35 -50 30 -10 -3 -27 0 -38 6 -18 9 -20 17 -14 43 3 18 10 34 14 37
11 7 5 73 -9 99 -23 42 -57 49 -132 25z m86 -49 c28 -27 29 -43 3 -108 -10
-25 -14 -27 -47 -21 -20 4 -40 10 -46 14 -5 4 -22 10 -37 14 -15 3 -39 11 -53
16 l-27 10 28 33 c30 36 86 66 125 67 14 0 38 -11 54 -25z"/>
<path d="M3431 1427 c2 -1 13 -9 24 -17 19 -14 19 -14 6 3 -7 9 -18 17 -24 17
-6 0 -8 -1 -6 -3z"/>
<path d="M4420 1385 c0 -8 -4 -15 -10 -15 -18 0 -10 -18 10 -23 14 -3 18 -1
13 6 -4 7 -6 20 -5 30 2 9 1 17 -2 17 -3 0 -6 -7 -6 -15z"/>
<path d="M6010 1392 c0 -5 -14 -15 -31 -23 -47 -22 -82 -112 -82 -214 -1 -95
11 -121 62 -136 32 -10 42 -9 67 7 50 30 114 97 114 118 0 16 -11 10 -54 -33
-42 -41 -62 -54 -94 -58 -38 -5 -42 -3 -62 28 -18 29 -20 43 -15 99 4 36 16
84 27 108 31 65 88 93 88 44 0 -29 -38 -81 -65 -88 -18 -4 -25 -13 -25 -31 0
-23 3 -22 61 24 33 26 76 57 95 68 24 14 36 29 40 53 7 37 -2 55 -12 26 -9
-24 -44 -64 -57 -64 -5 0 -7 11 -4 25 3 18 -2 30 -17 40 -23 17 -36 19 -36 7z"/>
<path d="M5505 1370 c11 -5 29 -8 40 -8 16 0 15 2 -5 8 -34 11 -60 11 -35 0z"/>
<path d="M4710 1350 c-8 -5 -43 -12 -78 -16 -35 -3 -65 -12 -67 -18 -2 -6 -6
-27 -8 -47 -5 -33 -3 -36 14 -32 11 3 17 8 14 11 -8 9 32 32 47 27 7 -3 32 12
56 34 47 44 58 64 22 41z"/>
<path d="M5440 1306 c0 -2 7 -7 16 -10 8 -3 12 -2 9 4 -6 10 -25 14 -25 6z"/>
<path d="M3685 1247 c11 -9 32 -17 48 -17 34 0 35 -13 1 -28 -36 -17 -55 -72
-60 -173 -3 -71 -1 -88 12 -93 27 -10 13 -50 -21 -57 -25 -6 -26 -7 -6 -8 13
0 38 12 58 29 18 17 29 30 23 30 -5 0 -10 7 -10 15 0 8 -6 12 -14 9 -27 -11
-37 137 -11 186 28 54 72 47 136 -23 39 -42 53 -112 45 -219 -6 -98 -19 -137
-61 -186 -38 -46 -80 -65 -122 -57 -49 9 -137 68 -161 107 -30 50 -79 149 -92
185 -16 42 -34 32 -25 -13 10 -54 128 -244 174 -282 25 -20 73 -40 111 -46 55
-9 124 38 155 107 62 134 68 277 17 385 -25 53 -72 102 -98 102 -8 0 -14 5
-14 10 0 6 6 10 14 10 8 0 18 -4 21 -10 3 -5 13 -10 22 -10 12 0 13 3 4 14 -7
8 -37 19 -69 24 -31 6 -66 14 -77 18 l-20 7 20 -16z"/>
<path d="M4776 1233 c-6 -14 -5 -15 5 -6 7 7 10 15 7 18 -3 3 -9 -2 -12 -12z"/>
<path d="M3950 1230 c-10 -7 -1 -8 30 -4 56 8 64 14 19 14 -19 0 -41 -5 -49
-10z"/>
<path d="M5748 1153 c-153 -78 -204 -88 -259 -49 -48 35 -90 58 -96 53 -2 -3
16 -26 40 -51 42 -43 49 -46 96 -46 60 0 219 49 273 85 21 14 42 25 47 25 12
0 34 28 29 39 -1 5 -60 -20 -130 -56z"/>
<path d="M4550 1200 c0 -5 5 -10 10 -10 6 0 10 5 10 10 0 6 -4 10 -10 10 -5 0
-10 -4 -10 -10z"/>
<path d="M4116 1167 c3 -10 9 -15 12 -12 3 3 0 11 -7 18 -10 9 -11 8 -5 -6z"/>
<path d="M4551 1164 c0 -11 3 -14 6 -6 3 7 2 16 -1 19 -3 4 -6 -2 -5 -13z"/>
<path d="M5221 1127 c-62 -17 -100 -67 -108 -138 -5 -55 10 -115 26 -104 5 3
12 1 16 -5 12 -20 65 -11 91 17 32 35 23 42 -13 9 -35 -33 -56 -33 -77 -1 -33
51 -13 123 47 169 67 51 119 24 161 -83 20 -49 26 -83 26 -138 0 -66 -3 -79
-29 -116 -51 -75 -134 -145 -186 -158 -32 -8 -42 -14 -33 -20 8 -5 -12 -9 -49
-9 -52 0 -63 -3 -63 -16 0 -14 9 -16 63 -12 127 11 269 114 334 242 23 45 25
59 20 131 -10 176 -99 266 -226 232z"/>
<path d="M3729 1113 c-13 -15 -12 -15 8 -5 31 17 37 15 74 -15 29 -24 31 -25
20 -5 -22 42 -77 55 -102 25z"/>
<path d="M3910 1086 c0 -5 32 -6 74 -2 65 6 78 4 110 -15 46 -27 48 -18 2 10
-28 17 -47 21 -110 19 -42 -2 -76 -7 -76 -12z"/>
<path d="M3739 1073 c-12 -15 -12 -16 1 -8 8 5 23 8 34 6 11 -1 16 2 12 8 -10
16 -32 13 -47 -6z"/>
<path d="M4251 1076 c3 -3 41 -11 85 -16 43 -5 93 -12 109 -16 22 -4 26 -3 15
5 -8 6 -40 13 -70 16 -30 3 -75 8 -100 11 -25 3 -42 3 -39 0z"/>
<path d="M3785 1040 c3 -5 8 -10 11 -10 2 0 4 5 4 10 0 6 -5 10 -11 10 -5 0
-7 -4 -4 -10z"/>
<path d="M3710 1030 c0 -5 7 -7 15 -4 8 4 15 8 15 10 0 2 -7 4 -15 4 -8 0 -15
-4 -15 -10z"/>
<path d="M3758 999 c-10 -5 -18 -15 -18 -20 0 -6 7 -3 16 6 10 10 24 13 36 9
14 -4 18 -2 14 5 -9 14 -25 14 -48 0z"/>
<path d="M3971 1006 c2 -2 24 -6 48 -9 29 -4 40 -2 30 4 -13 8 -88 14 -78 5z"/>
<path d="M5500 999 c0 -5 5 -7 10 -4 6 3 10 8 10 11 0 2 -4 4 -10 4 -5 0 -10
-5 -10 -11z"/>
<path d="M4250 940 c8 -5 20 -10 25 -10 6 0 3 5 -5 10 -8 5 -19 10 -25 10 -5
0 -3 -5 5 -10z"/>
<path d="M3940 901 c0 -24 3 -28 20 -24 16 4 36 -10 82 -55 54 -55 62 -60 76
-46 13 14 10 19 -26 55 -40 38 -128 99 -144 99 -4 0 -8 -13 -8 -29z"/>
<path d="M4290 910 c0 -5 11 -10 25 -10 14 0 25 -4 25 -10 0 -5 -8 -10 -18
-10 -28 0 -107 -56 -151 -106 -53 -61 -99 -188 -107 -298 -16 -200 74 -425
179 -450 70 -16 151 40 200 139 34 70 39 97 27 152 -13 56 -40 89 -95 114
l-40 18 30 0 c17 1 41 -6 53 -15 12 -8 22 -13 22 -9 0 3 -15 15 -32 26 l-33
21 38 -5 c21 -3 52 -13 69 -21 17 -9 34 -14 37 -11 9 10 -41 38 -73 41 -63 6
-142 6 -188 -1 -43 -7 -48 -6 -48 12 0 10 4 24 10 31 6 8 5 8 -4 0 -21 -18
-32 -70 -15 -64 8 2 43 7 79 10 52 4 62 3 49 -7 -9 -6 -21 -22 -28 -34 -7 -14
-21 -23 -34 -23 -13 0 -32 -7 -43 -15 -28 -21 -32 -19 -37 23 -2 20 -4 3 -4
-38 0 -45 2 -63 6 -45 4 21 17 36 43 50 44 23 53 17 62 -40 6 -37 5 -41 -21
-53 -58 -26 -67 -38 -53 -71 24 -58 68 -51 101 16 22 45 22 48 5 76 -21 37 -9
54 25 36 23 -12 24 -11 7 8 -24 26 -23 43 2 43 48 0 69 -54 60 -160 -3 -38
-41 -100 -82 -133 -33 -27 -41 -29 -84 -22 -62 9 -104 55 -141 154 -25 68 -28
88 -26 184 1 119 26 224 68 289 48 72 144 120 295 144 19 3 48 11 63 16 42 16
18 25 -105 43 -124 18 -118 17 -118 5z m30 -655 c0 -19 -32 -63 -49 -68 -32
-8 -31 16 2 46 29 25 47 34 47 22z"/>
<path d="M3757 895 c-15 -8 -39 -28 -53 -45 -20 -23 -34 -30 -61 -30 -35 0
-35 -1 -19 -19 32 -36 51 -31 111 25 61 58 74 96 22 69z"/>
<path d="M4120 906 c0 -2 8 -10 18 -17 15 -13 16 -12 3 4 -13 16 -21 21 -21
13z"/>
<path d="M4258 893 c7 -3 16 -2 19 1 4 3 -2 6 -13 5 -11 0 -14 -3 -6 -6z"/>
<path d="M4168 857 c4 -17 6 -17 23 -1 11 9 19 18 19 18 0 1 -11 1 -23 1 -18
0 -23 -4 -19 -18z"/>
<path d="M3940 819 c0 -5 9 -9 21 -9 11 0 30 -5 42 -11 16 -9 19 -9 11 0 -14
16 -74 32 -74 20z"/>
<path d="M4715 820 c11 -5 27 -9 35 -9 9 0 8 4 -5 9 -11 5 -27 9 -35 9 -9 0
-8 -4 5 -9z"/>
<path d="M6120 810 c-9 -6 -10 -10 -3 -10 6 0 15 5 18 10 8 12 4 12 -15 0z"/>
<path d="M3820 793 c0 -20 -79 -73 -115 -77 -20 -3 -40 -8 -44 -12 -3 -4 16
-4 43 -1 40 4 56 12 89 46 23 22 38 43 34 47 -4 4 -7 3 -7 -3z"/>
<path d="M4361 779 c-71 -14 -201 -111 -201 -151 0 -7 10 2 23 19 51 70 114
107 210 123 37 7 67 14 67 16 0 6 -50 3 -99 -7z"/>
<path d="M3931 776 c2 -2 15 -9 29 -15 24 -11 24 -11 6 3 -16 13 -49 24 -35
12z"/>
<path d="M3708 763 c7 -3 16 -2 19 1 4 3 -2 6 -13 5 -11 0 -14 -3 -6 -6z"/>
<path d="M4855 760 c7 -11 45 -20 45 -10 0 4 -11 10 -25 12 -13 3 -22 2 -20
-2z"/>
<path d="M5985 750 c-16 -5 -64 -14 -105 -20 -82 -13 -90 -15 -170 -52 -64
-30 -86 -35 -202 -47 -86 -10 -88 -11 -135 -58 -26 -26 -61 -58 -78 -69 -16
-12 -27 -25 -23 -29 9 -9 44 10 98 54 84 69 96 73 209 81 114 8 152 19 219 63
23 15 70 34 105 41 34 8 78 20 97 29 38 17 32 20 -15 7z"/>
<path d="M3430 723 c0 -17 6 -23 23 -23 54 1 60 34 7 42 -26 4 -30 1 -30 -19z"/>
<path d="M4070 720 c0 -5 5 -10 10 -10 6 0 10 5 10 10 0 6 -4 10 -10 10 -5 0
-10 -4 -10 -10z"/>
<path d="M4015 705 c11 -8 25 -19 32 -25 16 -13 23 -13 23 3 0 6 -17 17 -37
24 -33 10 -36 10 -18 -2z"/>
<path d="M3878 649 c-17 -28 -16 -31 0 -47 43 -40 64 -54 33 -20 -31 34 -33
40 -22 64 16 37 9 39 -11 3z"/>
<path d="M6030 670 c-58 -4 -116 -13 -131 -21 -101 -56 -205 -215 -225 -345
-10 -67 13 -153 51 -191 28 -28 40 -33 83 -33 90 0 110 9 152 64 41 55 68 145
56 190 -9 36 -55 55 -73 30 -16 -23 -17 -42 -1 -26 18 18 45 14 51 -8 6 -23
-10 -80 -36 -128 -20 -37 -83 -71 -130 -72 -39 0 -93 25 -106 48 -6 12 -11 50
-11 85 0 62 1 65 28 75 16 5 44 23 63 39 49 42 78 58 131 73 59 16 151 9 176
-13 24 -22 32 -21 32 3 0 12 -8 21 -22 24 -137 29 -182 23 -300 -39 -38 -20
-72 -34 -75 -32 -7 8 39 107 50 107 6 0 8 3 4 6 -6 6 22 41 67 84 47 45 184
63 259 35 14 -6 17 -2 17 24 0 17 -1 30 -2 29 -2 0 -50 -4 -108 -8z m-213
-566 c-3 -3 -12 -4 -19 -1 -8 3 -5 6 6 6 11 1 17 -2 13 -5z"/>
<path d="M3955 651 c2 -5 17 -11 32 -14 16 -3 35 -8 44 -12 10 -4 19 0 22 8 4
10 0 13 -12 10 -10 -3 -35 0 -55 5 -20 6 -34 7 -31 3z"/>
<path d="M4324 650 c-12 -5 -25 -14 -29 -20 -8 -13 33 -49 58 -50 11 0 15 -5
11 -11 -4 -6 -30 -9 -67 -7 -38 2 -62 -1 -64 -8 -3 -8 22 -10 82 -8 47 2 90 6
94 8 15 10 131 -36 142 -55 9 -19 12 -18 54 11 50 34 132 55 178 45 51 -10
149 -25 192 -30 22 -2 29 -1 15 2 -23 5 -23 6 -5 13 12 4 -10 9 -59 13 -44 4
-84 11 -90 15 -44 33 -268 38 -280 6 -7 -19 -49 -9 -96 23 -19 12 -45 23 -58
23 -30 0 -64 18 -57 31 7 11 7 11 -21 -1z"/>
<path d="M3514 586 c11 -9 29 -16 40 -15 17 1 16 2 -6 9 -14 4 -32 11 -40 15
-7 3 -4 -1 6 -9z"/>
<path d="M3625 580 c-4 -6 3 -10 14 -10 25 0 27 6 6 13 -8 4 -17 2 -20 -3z"/>
<path d="M3788 563 c-29 -7 -21 -26 9 -20 17 3 42 -3 65 -14 56 -29 59 -22 6
11 -27 17 -51 29 -55 29 -5 -1 -16 -3 -25 -6z"/>
<path d="M4122 525 c0 -16 2 -22 5 -12 2 9 2 23 0 30 -3 6 -5 -1 -5 -18z"/>
<path d="M3953 528 c16 -10 87 -10 87 0 0 4 -22 7 -49 7 -27 0 -44 -3 -38 -7z"/>
<path d="M4417 529 c7 -7 15 -10 18 -7 3 3 -2 9 -12 12 -14 6 -15 5 -6 -5z"/>
<path d="M3937 469 c6 -8 30 -25 52 -37 35 -20 41 -21 41 -7 0 9 -5 13 -10 10
-6 -3 -22 2 -38 13 -47 32 -59 38 -45 21z"/>
<path d="M4112 455 c0 -16 2 -22 5 -12 2 9 2 23 0 30 -3 6 -5 -1 -5 -18z"/>
<path d="M3768 463 c7 -3 16 -2 19 1 4 3 -2 6 -13 5 -11 0 -14 -3 -6 -6z"/>
<path d="M3800 456 c0 -2 7 -7 16 -10 8 -3 12 -2 9 4 -6 10 -25 14 -25 6z"/>
<path d="M4593 395 c-7 -8 -13 -16 -13 -19 0 -7 34 -19 80 -26 25 -5 62 -11
83 -15 37 -8 65 -2 205 43 28 9 52 19 52 22 0 3 -16 6 -35 7 -23 1 -35 -4 -35
-12 0 -8 -7 -11 -19 -8 -10 3 -22 0 -25 -6 -15 -23 -176 -9 -266 23 -8 3 -21
-1 -27 -9z"/>
<path d="M5390 373 c-77 -13 -207 -71 -255 -114 -33 -29 -147 -78 -216 -93
-89 -18 -283 -7 -323 19 -27 18 -28 18 -47 -2 l-21 -20 65 -16 c39 -10 111
-17 178 -18 132 -1 209 18 299 75 30 20 71 43 90 52 19 9 66 32 104 51 38 18
75 32 81 29 6 -2 47 3 90 10 44 8 102 13 129 12 33 -2 51 1 53 10 4 9 -20 12
-99 11 -56 -1 -114 -4 -128 -6z"/>
<path d="M4474 354 c3 -9 6 -22 6 -30 0 -12 9 -14 48 -8 55 8 54 7 47 26 -4 9
-16 13 -39 10 -19 -2 -37 1 -40 7 -11 17 -29 13 -22 -5z"/>
<path d="M3799 339 c24 -11 46 -18 48 -15 4 4 -73 36 -85 35 -4 0 13 -9 37
-20z"/>
<path d="M3517 339 c7 -7 15 -10 18 -7 3 3 -2 9 -12 12 -14 6 -15 5 -6 -5z"/>
<path d="M4005 340 c27 -12 35 -12 35 0 0 6 -12 10 -27 9 -25 0 -26 -1 -8 -9z"/>
<path d="M1 173 l-1 -173 173 1 c123 1 161 4 134 10 -135 32 -254 149 -293
289 -11 41 -12 29 -13 -127z"/>
<path d="M9570 318 c0 -41 -58 -147 -108 -197 -53 -53 -111 -87 -182 -107 -41
-11 -29 -12 128 -13 l172 -1 0 170 c0 94 -2 170 -5 170 -3 0 -5 -10 -5 -22z"/>
<path d="M3558 323 c7 -3 16 -2 19 1 4 3 -2 6 -13 5 -11 0 -14 -3 -6 -6z"/>
<path d="M3437 292 c-7 -12 1 -74 10 -82 4 -4 28 -15 52 -24 48 -19 78 -15
145 15 59 27 98 24 222 -17 60 -20 136 -39 168 -42 l59 -5 -7 29 c-10 37 -11
38 -34 25 -24 -13 -68 -1 -157 40 -77 35 -151 39 -216 9 -43 -19 -118 -25
-151 -12 -9 4 -32 22 -52 39 -19 18 -37 29 -39 25z"/>
<path d="M5907 285 c-4 -8 -3 -16 1 -19 13 -8 35 11 28 23 -10 15 -23 14 -29
-4z"/>
<path d="M4010 271 l-35 -7 43 -5 c30 -3 42 -1 42 8 0 7 -3 12 -7 12 -5 -1
-24 -5 -43 -8z"/>
<path d="M5375 270 c-3 -5 -1 -10 4 -10 6 0 11 5 11 10 0 6 -2 10 -4 10 -3 0
-8 -4 -11 -10z"/>
<path d="M5255 240 c-22 -10 -52 -19 -67 -19 -47 -2 -31 -16 20 -19 26 -1 57
-7 70 -14 32 -17 69 -84 77 -140 5 -31 12 -48 21 -48 32 0 4 116 -51 213 -15
26 -27 47 -28 46 -1 0 -20 -9 -42 -19z"/>
<path d="M4361 233 c-1 -6 -4 -20 -7 -30 -5 -17 -5 -17 6 0 6 10 9 23 6 30 -3
9 -5 9 -5 0z"/>
<path d="M5590 225 c-8 -9 -8 -15 -2 -15 12 0 26 19 19 26 -2 2 -10 -2 -17
-11z"/>
<path d="M4492 190 c0 -14 2 -19 5 -12 2 6 2 18 0 25 -3 6 -5 1 -5 -13z"/>
<path d="M4325 171 c-6 -6 -26 -17 -46 -25 -31 -13 -39 -13 -63 0 -41 21 -46
17 -9 -7 28 -18 37 -19 67 -9 18 6 42 20 51 30 18 20 17 28 0 11z"/>
<path d="M3754 162 c3 -5 18 -12 33 -15 16 -3 37 -8 48 -12 13 -4 11 -1 -5 8
-32 18 -84 31 -76 19z"/>
<path d="M3695 150 c-13 -5 -14 -9 -5 -9 8 0 24 4 35 9 13 5 14 9 5 9 -8 0
-24 -4 -35 -9z"/>
<path d="M4482 130 c0 -19 2 -27 5 -17 2 9 2 25 0 35 -3 9 -5 1 -5 -18z"/>
<path d="M3870 115 c0 -6 82 -46 87 -42 3 3 -75 47 -83 47 -2 0 -4 -2 -4 -5z"/>
<path d="M3575 100 c-13 -6 -15 -9 -5 -9 8 0 22 4 30 9 18 12 2 12 -25 0z"/>
<path d="M4079 91 c-13 -11 -19 -20 -14 -20 14 0 50 28 43 34 -3 3 -16 -3 -29
-14z"/>
<path d="M5610 100 c-13 -8 -13 -10 2 -10 9 0 20 5 23 10 8 13 -5 13 -25 0z"/>
<path d="M3528 83 c7 -3 16 -2 19 1 4 3 -2 6 -13 5 -11 0 -14 -3 -6 -6z"/>
<path d="M4470 77 c0 -17 34 -34 80 -41 33 -5 33 -5 -8 10 -24 9 -46 22 -49
30 -7 18 -23 18 -23 1z"/>
<path d="M3689 33 c-13 -17 -13 -17 6 -3 11 8 22 16 24 17 2 2 0 3 -6 3 -6 0
-17 -8 -24 -17z"/>
<path d="M4121 28 c-17 -27 -9 -32 12 -8 9 11 13 21 9 24 -5 3 -14 -4 -21 -16z"/>
<path d="M3800 36 c0 -2 7 -7 16 -10 8 -3 12 -2 9 4 -6 10 -25 14 -25 6z"/>
<path d="M4440 25 c-7 -9 -10 -18 -7 -21 3 -3 10 4 17 15 13 25 8 27 -10 6z"/>
</g>
</svg>
