<?xml version="1.0" standalone="no"?>
<!DOCTYPE svg PUBLIC "-//W3C//DTD SVG 20010904//EN"
 "http://www.w3.org/TR/2001/REC-SVG-20010904/DTD/svg10.dtd">
<svg version="1.0" xmlns="http://www.w3.org/2000/svg"
 width="454.000000pt" height="528.000000pt" viewBox="0 0 454.000000 528.000000"
 preserveAspectRatio="xMidYMid meet">

<g transform="translate(0.000000,528.000000) scale(0.100000,-0.100000)"
fill="#000000" stroke="none">
<path d="M1 5108 c1 -128 3 -163 10 -134 15 61 68 152 115 195 47 44 125 87
181 100 27 6 -11 9 -134 10 l-173 1 1 -172z"/>
<path d="M4000 5266 c0 -8 5 -18 10 -21 22 -14 10 -53 -22 -69 -45 -23 -71
-20 -122 15 -32 21 -50 28 -61 22 -13 -8 -9 -16 25 -50 22 -23 40 -50 40 -61
0 -13 -29 -42 -82 -83 -46 -34 -114 -93 -153 -130 -38 -38 -104 -97 -145 -132
-41 -35 -104 -92 -140 -127 -36 -34 -80 -69 -98 -76 -18 -8 -30 -19 -27 -24 6
-9 -136 -141 -164 -152 -10 -3 -25 -18 -34 -32 -10 -14 -24 -26 -32 -26 -8 0
-15 -5 -15 -11 0 -6 -7 -9 -15 -5 -8 3 -15 0 -15 -7 0 -23 -74 -87 -89 -78 -7
5 -22 6 -32 4 -26 -7 -89 -82 -89 -105 0 -10 -5 -18 -11 -18 -7 0 -8 -7 -4
-17 4 -10 14 -43 22 -73 8 -30 23 -63 32 -73 18 -18 18 -17 17 36 0 60 23 101
51 90 8 -3 19 0 24 8 7 12 9 12 9 -1 1 -19 39 29 40 48 0 21 27 45 33 29 4 -8
6 -7 6 4 1 8 -4 20 -10 26 -7 7 0 20 26 44 33 31 85 56 85 41 -1 -13 -27 -42
-38 -42 -5 0 -12 -7 -16 -15 -5 -13 -3 -13 17 0 12 8 34 28 49 44 20 21 23 28
11 27 -9 0 -18 4 -20 11 -5 13 33 28 60 24 10 -1 16 3 15 10 -2 7 2 14 7 14
22 3 49 20 84 51 l36 34 -27 -2 c-15 -1 -25 -4 -22 -7 2 -2 -6 -15 -18 -28
-26 -28 -50 -31 -41 -5 11 28 46 72 58 72 6 0 22 12 36 26 47 51 100 64 83 20
-4 -11 -1 -16 10 -16 9 0 16 5 16 10 0 6 9 10 20 10 12 0 20 7 20 16 0 9 12
29 28 44 15 15 35 41 44 59 14 26 15 31 3 31 -22 0 -18 24 7 40 12 8 32 25 45
38 38 36 48 22 13 -16 -39 -41 4 -23 65 28 33 27 66 50 73 50 6 0 12 7 12 15
0 8 9 15 20 15 13 0 18 5 14 15 -8 20 25 32 37 14 7 -11 10 -9 15 8 7 26 68
68 84 58 6 -3 7 0 4 9 -6 15 -18 20 -38 17 -15 -3 12 26 66 70 40 34 51 39 63
29 9 -7 19 -10 22 -6 4 4 1 11 -6 16 -17 10 -19 7 77 89 47 41 60 57 51 65 -8
8 -13 8 -16 -1 -3 -7 -9 -13 -15 -13 -6 0 -3 9 7 20 14 15 21 17 26 8 6 -9 12
-8 27 5 10 9 23 17 29 17 6 0 13 7 17 15 8 21 72 13 138 -18 106 -49 186 -147
214 -262 11 -45 12 -34 13 128 l1 177 -270 0 c-228 0 -270 -2 -270 -14z m-420
-490 c0 -3 -4 -8 -10 -11 -5 -3 -10 -1 -10 4 0 6 5 11 10 11 6 0 10 -2 10 -4z"/>
<path d="M4228 5173 c7 -3 16 -2 19 1 4 3 -2 6 -13 5 -11 0 -14 -3 -6 -6z"/>
<path d="M4340 5136 c0 -9 7 -12 21 -9 16 4 17 8 7 14 -19 13 -28 11 -28 -5z"/>
<path d="M1680 5130 c0 -5 5 -10 10 -10 6 0 10 5 10 10 0 6 -4 10 -10 10 -5 0
-10 -4 -10 -10z"/>
<path d="M4025 4960 c3 -5 8 -10 11 -10 2 0 4 5 4 10 0 6 -5 10 -11 10 -5 0
-7 -4 -4 -10z"/>
<path d="M3880 4940 c0 -22 1 -23 24 -14 13 5 13 8 1 20 -19 19 -25 18 -25 -6z"/>
<path d="M4000 4925 c0 -18 -5 -18 -31 -5 -18 10 -18 10 -1 -24 13 -27 21 -32
34 -25 19 10 32 44 23 59 -9 15 -25 12 -25 -5z"/>
<path d="M3710 4789 c0 -5 5 -7 10 -4 6 3 10 8 10 11 0 2 -4 4 -10 4 -5 0 -10
-5 -10 -11z"/>
<path d="M3610 4731 c0 -5 5 -13 10 -16 6 -3 10 -2 10 4 0 5 -4 13 -10 16 -5
3 -10 2 -10 -4z"/>
<path d="M1777 4660 c-6 -23 5 -25 35 -9 17 9 18 13 7 20 -22 14 -36 10 -42
-11z"/>
<path d="M3616 4635 c4 -8 10 -15 15 -15 5 0 9 7 9 15 0 8 -7 15 -15 15 -9 0
-12 -6 -9 -15z"/>
<path d="M1840 4629 c0 -5 5 -7 10 -4 6 3 10 8 10 11 0 2 -4 4 -10 4 -5 0 -10
-5 -10 -11z"/>
<path d="M3730 4604 c0 -8 5 -12 10 -9 6 3 10 10 10 16 0 5 -4 9 -10 9 -5 0
-10 -7 -10 -16z"/>
<path d="M3463 4565 c-28 -12 -28 -17 -3 -40 11 -10 20 -26 20 -37 0 -11 -7
-18 -20 -18 -13 0 -20 -7 -20 -19 0 -30 17 -34 53 -13 36 21 39 46 9 103 -15
30 -20 33 -39 24z"/>
<path d="M3845 4409 c-49 -4 -129 -7 -177 -8 -48 -1 -90 -5 -93 -11 -4 -6 12
-10 42 -10 69 1 364 28 371 34 6 7 -14 6 -143 -5z"/>
<path d="M2316 4367 c3 -10 9 -15 12 -12 3 3 0 11 -7 18 -10 9 -11 8 -5 -6z"/>
<path d="M2340 4265 c0 -10 4 -34 10 -54 5 -20 15 -56 21 -80 6 -25 14 -40 19
-35 5 5 -1 45 -15 93 -25 87 -35 108 -35 76z"/>
<path d="M3007 4133 c-15 -15 -6 -63 13 -73 38 -20 66 -1 60 40 -3 29 -55 52
-73 33z"/>
<path d="M2396 4014 c15 -79 23 -91 21 -30 -1 39 -7 61 -15 64 -10 3 -12 -5
-6 -34z"/>
<path d="M2873 3940 c2 -29 33 -38 67 -20 30 16 13 33 -26 27 -20 -4 -35 -1
-38 6 -3 7 -4 1 -3 -13z"/>
<path d="M2425 3885 c7 -40 20 -63 30 -53 6 6 -14 70 -28 83 -6 7 -7 -4 -2
-30z"/>
<path d="M2062 3796 c7 -8 15 -12 17 -11 5 6 -10 25 -20 25 -5 0 -4 -6 3 -14z"/>
<path d="M2450 3780 c0 -19 3 -21 12 -12 9 9 9 15 0 24 -9 9 -12 7 -12 -12z"/>
<path d="M2004 3756 c-3 -8 -4 -25 -1 -38 3 -17 5 -15 6 10 1 22 5 31 13 26 7
-4 8 -3 4 4 -10 16 -15 15 -22 -2z"/>
<path d="M2081 3754 c0 -11 3 -14 6 -6 3 7 2 16 -1 19 -3 4 -6 -2 -5 -13z"/>
<path d="M2051 3744 c0 -11 3 -14 6 -6 3 7 2 16 -1 19 -3 4 -6 -2 -5 -13z"/>
<path d="M2157 3742 c6 -4 13 -21 15 -38 l3 -31 16 33 c11 22 12 31 3 27 -6
-2 -15 0 -19 6 -3 6 -12 11 -18 11 -9 0 -9 -2 0 -8z"/>
<path d="M2461 3734 c0 -11 3 -14 6 -6 3 7 2 16 -1 19 -3 4 -6 -2 -5 -13z"/>
<path d="M4078 3735 c-4 -4 -26 -9 -50 -11 -70 -5 -326 -82 -357 -107 -9 -6
-26 -18 -38 -24 -54 -30 -67 -40 -109 -80 -24 -23 -44 -47 -44 -53 0 -5 -3
-10 -8 -10 -4 0 -14 -15 -21 -32 -8 -18 -26 -44 -41 -58 -27 -26 -70 -94 -70
-110 0 -6 -16 -30 -35 -56 -19 -25 -33 -49 -30 -54 2 -4 -7 -45 -21 -91 -24
-80 -25 -92 -19 -251 3 -92 12 -200 20 -240 27 -127 138 -334 233 -433 53 -55
97 -93 88 -75 -4 8 6 0 23 -18 17 -18 31 -30 31 -26 0 3 13 -4 29 -15 49 -35
43 -24 -22 43 -48 48 -63 70 -62 91 0 16 6 30 13 33 21 7 13 27 -28 68 -22 21
-40 47 -40 57 0 9 -4 17 -8 17 -5 0 -14 10 -20 23 -9 19 -10 17 -5 -13 5 -32
4 -34 -9 -16 -9 11 -17 15 -21 9 -7 -11 -57 -5 -57 6 0 4 7 17 16 29 21 30 10
62 -22 62 -13 0 -25 5 -25 10 -2 12 -4 21 -11 40 -20 51 -38 185 -38 273 0
115 19 224 56 312 14 33 34 84 45 113 15 38 26 52 40 52 10 0 19 4 19 10 0 5
13 29 29 52 16 24 27 46 25 50 -3 5 2 8 10 8 9 0 16 8 16 18 1 17 32 62 44 62
3 0 15 8 25 18 39 34 50 42 65 42 8 0 18 4 21 10 4 6 -1 7 -12 3 -16 -6 -16
-5 -4 10 7 9 18 17 23 17 5 0 21 9 35 20 14 11 39 20 55 20 38 0 64 14 112 62
21 21 46 38 55 38 9 0 22 5 28 11 12 12 151 38 203 38 33 0 34 0 13 -12 -24
-13 -25 -13 100 -20 9 -1 17 -8 17 -15 0 -11 8 -12 38 -6 48 11 132 8 145 -5
7 -7 5 -16 -7 -30 -13 -15 -14 -20 -4 -24 9 -4 9 -6 -2 -6 -9 -1 -25 6 -37 14
-34 24 -215 48 -308 41 -167 -14 -325 -78 -465 -190 -52 -42 -142 -140 -178
-195 -50 -73 -110 -200 -122 -254 -5 -23 -16 -73 -25 -110 -20 -91 -20 -181 0
-295 17 -98 31 -132 54 -132 14 0 14 6 -13 103 -21 78 -22 234 0 265 8 12 22
22 30 22 41 0 101 72 84 100 -12 19 -55 -11 -82 -56 -51 -86 -46 33 7 161 63
152 109 220 222 325 121 113 258 182 431 216 85 16 198 19 207 4 3 -5 23 -10
43 -10 36 -1 128 -20 165 -35 15 -6 17 0 17 61 0 37 -3 65 -6 61 -4 -3 -20 1
-36 9 -75 39 -154 56 -283 61 -71 3 -133 2 -137 -2z m249 -51 c-3 -3 -12 -4
-19 -1 -8 3 -5 6 6 6 11 1 17 -2 13 -5z m-797 -1445 c0 -5 -8 -9 -17 -9 -14 0
-15 -2 -4 -9 17 -11 53 -91 41 -91 -6 0 -10 6 -10 13 0 8 -13 33 -29 57 -22
33 -26 46 -17 56 11 12 36 1 36 -17z"/>
<path d="M2131 3702 c0 -18 4 -43 10 -54 9 -18 8 -24 -7 -35 -10 -7 -13 -13
-7 -13 7 0 15 5 18 11 4 6 13 8 20 5 8 -3 19 3 27 12 12 15 11 16 -4 3 -17
-12 -23 -9 -19 12 1 5 -3 6 -8 2 -10 -6 -16 10 -24 65 -3 20 -5 18 -6 -8z"/>
<path d="M2062 3710 c0 -8 8 -33 18 -55 l19 -40 0 40 c0 26 -2 35 -8 26 -6
-10 -11 -6 -19 15 -6 16 -10 22 -10 14z"/>
<path d="M2476 3675 c8 -50 14 -58 14 -19 0 16 -5 36 -11 44 -7 11 -8 4 -3
-25z"/>
<path d="M2040 3670 c-3 -38 -1 -62 6 -69 8 -9 9 5 3 54 -5 44 -6 46 -9 15z"/>
<path d="M1883 3673 c-8 -3 -11 -15 -7 -31 5 -22 3 -24 -6 -12 -10 12 -11 12
-5 -5 4 -11 10 -30 12 -42 3 -12 11 -24 19 -27 10 -4 11 0 4 20 -6 14 -10 41
-10 61 0 28 3 34 16 29 8 -3 12 -2 9 4 -7 11 -13 11 -32 3z"/>
<path d="M1952 3655 c0 -16 2 -22 5 -12 2 9 2 23 0 30 -3 6 -5 -1 -5 -18z"/>
<path d="M1992 3622 c-1 -19 -6 -31 -12 -27 -5 3 -7 0 -4 -9 10 -26 -7 -42
-23 -21 -7 11 -13 14 -13 8 0 -6 7 -17 16 -24 13 -11 17 -10 25 4 5 9 15 14
23 11 7 -3 19 3 26 13 12 15 12 16 0 6 -23 -21 -29 -15 -33 30 -3 35 -4 37 -5
9z"/>
<path d="M2496 3622 c-10 -17 4 -56 15 -45 6 6 6 19 1 33 -6 15 -11 19 -16 12z"/>
<path d="M2076 3593 c-6 -14 -5 -15 5 -6 7 7 10 15 7 18 -3 3 -9 -2 -12 -12z"/>
<path d="M4215 3528 c-35 -50 -105 -164 -105 -172 0 -23 71 53 107 114 15 25
31 47 35 48 4 2 8 10 8 18 0 22 -27 17 -45 -8z"/>
<path d="M1881 3524 c0 -11 3 -14 6 -6 3 7 2 16 -1 19 -3 4 -6 -2 -5 -13z"/>
<path d="M3940 3356 c0 -7 -9 -16 -20 -19 -28 -7 -25 -41 5 -61 31 -20 49 -13
33 14 -9 14 -9 25 -1 43 11 24 8 37 -9 37 -4 0 -8 -6 -8 -14z"/>
<path d="M4065 3312 c-11 -9 -32 -36 -48 -59 l-27 -43 -90 0 c-90 0 -139 -18
-58 -22 106 -4 170 1 194 17 31 20 64 73 64 103 0 26 -8 27 -35 4z"/>
<path d="M3773 3283 c-7 -2 -13 -16 -13 -30 0 -15 5 -23 13 -21 6 3 12 17 12
31 1 15 1 27 0 26 0 0 -6 -3 -12 -6z"/>
<path d="M3629 3218 c-1 -2 -2 -18 -3 -36 -1 -24 -8 -38 -24 -46 -26 -14 -19
-26 13 -26 28 0 165 68 165 82 0 10 -20 8 -92 -8 -24 -5 -28 -3 -28 15 0 12
-6 21 -15 21 -8 0 -15 -1 -16 -2z"/>
<path d="M3560 3144 c0 -8 5 -12 10 -9 6 3 10 10 10 16 0 5 -4 9 -10 9 -5 0
-10 -7 -10 -16z"/>
<path d="M4355 3070 c-3 -5 1 -10 10 -10 9 0 13 5 10 10 -3 6 -8 10 -10 10 -2
0 -7 -4 -10 -10z"/>
<path d="M2683 2908 c3 -12 9 -47 13 -76 10 -78 20 -71 19 16 0 67 -2 77 -19
80 -15 3 -18 0 -13 -20z"/>
<path d="M1870 2615 c0 -8 4 -15 10 -15 5 0 7 7 4 15 -4 8 -8 15 -10 15 -2 0
-4 -7 -4 -15z"/>
<path d="M2300 2594 c-25 -7 -55 -14 -67 -14 -13 0 -23 -5 -23 -11 0 -6 8 -8
18 -5 9 2 49 12 87 22 39 9 72 18 74 20 10 9 -48 2 -89 -12z"/>
<path d="M2478 2603 c-10 -2 -18 -8 -18 -13 0 -10 38 -1 46 11 5 9 1 10 -28 2z"/>
<path d="M2295 2562 c-118 -27 -122 -29 -112 -38 6 -6 255 51 265 61 11 10
-46 2 -153 -23z"/>
<path d="M2133 2523 c-34 -7 -28 -20 7 -15 17 2 30 8 30 13 0 5 -3 8 -7 8 -5
-1 -18 -4 -30 -6z"/>
<path d="M3441 2424 c0 -11 3 -14 6 -6 3 7 2 16 -1 19 -3 4 -6 -2 -5 -13z"/>
<path d="M1820 2311 c0 -14 -39 -20 -43 -7 -3 8 -7 8 -18 0 -8 -6 -24 -10 -36
-8 -12 2 -25 -1 -28 -6 -9 -14 -23 -12 -28 3 -2 6 -3 4 -2 -5 3 -17 -7 -23
-29 -19 -5 1 -6 -5 -3 -14 5 -11 -1 -15 -23 -15 -19 0 -31 -6 -35 -19 -5 -16
-11 -17 -51 -10 -25 5 -50 12 -56 15 -8 5 -9 -5 -5 -31 5 -32 3 -38 -14 -42
-14 -4 -19 -12 -16 -24 3 -10 2 -18 -2 -17 -35 4 -51 -4 -51 -26 0 -20 -4 -23
-22 -18 -18 4 -20 2 -16 -16 7 -24 -3 -27 -32 -12 -14 7 -19 5 -23 -10 -3 -11
-1 -20 5 -20 5 0 -40 -53 -101 -117 -61 -64 -111 -121 -111 -127 1 -6 16 7 35
29 19 22 39 40 44 40 6 0 16 6 23 13 6 6 8 12 3 12 -5 0 2 8 15 17 14 10 29
17 33 15 5 -1 6 2 3 7 -8 13 149 115 230 150 204 86 338 103 609 74 104 -10
334 -101 319 -125 -5 -7 -3 -8 6 -3 8 5 18 2 24 -6 12 -15 31 -28 81 -55 17
-9 50 -33 75 -52 l45 -36 -50 48 c-87 83 -155 131 -246 174 -117 55 -158 72
-172 72 -8 0 -20 7 -27 15 -7 8 -16 12 -21 9 -5 -3 -9 -1 -9 4 0 16 -33 24
-42 10 -6 -10 -10 -10 -16 -1 -4 6 -19 14 -34 18 -15 4 -27 10 -26 14 2 20 -4
30 -17 25 -9 -4 -18 1 -21 11 -4 9 -16 15 -28 14 -41 -3 -48 1 -43 21 5 18 -3
25 -25 21 -5 0 -8 4 -8 9 0 6 -4 10 -10 10 -5 0 -10 -4 -10 -9z"/>
<path d="M1277 2243 c-15 -14 -6 -28 18 -29 17 -1 25 3 25 14 0 8 -3 12 -7 9
-3 -4 -11 -2 -18 3 -7 5 -15 7 -18 3z"/>
<path d="M3624 2125 c1 -9 12 -26 24 -38 13 -12 30 -31 40 -43 9 -12 32 -29
50 -38 18 -9 38 -25 45 -36 6 -11 17 -20 23 -20 6 0 21 -11 34 -25 12 -13 26
-22 30 -20 4 3 13 -2 20 -10 7 -8 9 -15 4 -15 -11 0 18 -20 29 -20 5 0 5 5 2
10 -7 11 15 13 41 3 16 -6 16 -7 -2 -13 -14 -5 -5 -10 36 -19 73 -17 235 -27
227 -15 -3 6 9 11 26 12 24 2 28 0 17 -8 -11 -7 -5 -10 24 -10 55 0 166 22
166 33 0 5 7 6 16 3 10 -4 13 -2 8 6 -5 8 -2 9 10 5 27 -10 46 17 46 63 0 36
-3 41 -17 35 -159 -63 -382 -74 -543 -26 -130 39 -188 70 -293 155 -63 51 -66
53 -63 31z m770 -274 c3 -5 -5 -11 -19 -13 -20 -4 -23 -3 -14 8 13 16 25 18
33 5z m-337 -7 c-3 -3 -12 -4 -19 -1 -8 3 -5 6 6 6 11 1 17 -2 13 -5z m60 -10
c-3 -3 -12 -4 -19 -1 -8 3 -5 6 6 6 11 1 17 -2 13 -5z"/>
<path d="M1760 2104 c-107 -14 -266 -62 -361 -109 -27 -14 -56 -40 -73 -65
-38 -57 -28 -59 19 -4 24 30 57 55 92 70 68 31 83 30 49 -1 -24 -23 -36 -42
-18 -31 5 3 5 -18 1 -47 -3 -29 -2 -53 2 -55 5 -2 9 -8 9 -13 0 -5 -25 -9 -55
-9 -50 0 -55 -2 -61 -25 -3 -14 -4 -32 0 -40 4 -11 -3 -19 -22 -26 -15 -6 -61
-27 -103 -46 -69 -32 -80 -41 -110 -92 -18 -31 -46 -75 -62 -99 -16 -24 -26
-46 -23 -49 4 -4 25 3 47 15 23 12 45 22 50 22 4 0 33 11 63 25 115 52 334
108 481 122 91 8 263 10 315 3 25 -4 34 -1 32 8 -2 10 2 10 20 1 23 -12 55
-22 138 -40 180 -41 402 -131 512 -206 26 -18 53 -33 61 -33 7 0 18 -5 25 -12
7 -7 12 -9 12 -5 0 4 9 3 20 -3 11 -6 20 -9 20 -7 0 12 -33 67 -40 67 -18 0
-17 28 1 44 18 15 20 15 17 0 -2 -9 6 -20 19 -25 l22 -8 -20 36 c-36 63 -11
47 32 -21 23 -36 43 -66 46 -66 2 0 2 3 0 8 -2 4 -13 25 -23 47 -22 48 -106
186 -142 235 -43 58 -144 160 -202 205 -123 94 -331 185 -426 185 -22 0 -64
-7 -94 -16 -29 -8 -62 -13 -74 -10 -12 3 -68 1 -126 -5 -69 -8 -138 -9 -200
-3 l-95 9 80 20 c66 17 114 20 276 20 160 0 193 2 182 13 -13 13 -241 25 -313
16z m348 -76 c-8 -13 -36 -60 -62 -105 l-48 -83 -126 0 c-70 0 -138 -3 -150
-7 -19 -5 -23 -2 -21 13 2 10 -3 29 -10 42 -10 20 -18 22 -44 17 -46 -10 -61
-29 -17 -21 33 6 34 5 7 -5 -22 -9 -33 -8 -52 5 -13 9 -33 16 -44 16 -16 0
-19 6 -18 35 2 19 9 40 16 47 11 11 11 9 1 -12 l-12 -25 26 26 c26 24 30 25
89 16 62 -9 232 4 301 24 16 5 32 7 34 4 3 -2 -14 -34 -38 -70 -24 -36 -40
-68 -37 -71 5 -6 97 131 97 145 0 8 67 27 104 30 17 1 17 -1 4 -21z m-165 -5
c-7 -2 -21 -2 -30 0 -10 3 -4 5 12 5 17 0 24 -2 18 -5z m-336 -9 c-3 -3 -12
-4 -19 -1 -8 3 -5 6 6 6 11 1 17 -2 13 -5z m258 -4 c-16 -4 -43 -8 -60 -8 -29
0 -29 0 -5 8 14 4 41 8 60 8 l35 0 -30 -8z m-55 -230 c0 -13 -70 -42 -90 -37
-9 2 3 12 30 25 51 24 60 26 60 12z m-461 -67 c-4 -24 4 -33 26 -33 33 0 35
-35 3 -43 -13 -3 -50 -12 -83 -21 -67 -17 -115 -20 -115 -8 0 16 47 52 106 81
69 35 64 33 63 24z m1431 -243 c0 -5 -4 -10 -10 -10 -5 0 -10 5 -10 10 0 6 5
10 10 10 6 0 10 -4 10 -10z"/>
<path d="M1865 1940 c-3 -6 -2 -17 2 -25 7 -12 10 -12 20 4 10 15 9 20 -2 25
-8 3 -17 1 -20 -4z"/>
<path d="M1609 1924 c-12 -14 -11 -16 5 -13 11 2 21 10 24 17 5 17 -13 15 -29
-4z"/>
<path d="M1690 1930 c-13 -8 -12 -10 3 -10 9 0 17 5 17 10 0 12 -1 12 -20 0z"/>
<path d="M1735 1930 c-3 -5 1 -10 9 -10 8 0 18 5 21 10 3 6 -1 10 -9 10 -8 0
-18 -4 -21 -10z"/>
<path d="M1808 1933 c7 -3 16 -2 19 1 4 3 -2 6 -13 5 -11 0 -14 -3 -6 -6z"/>
<path d="M2038 2063 c7 -3 16 -2 19 1 4 3 -2 6 -13 5 -11 0 -14 -3 -6 -6z"/>
<path d="M1975 2050 c-13 -5 -14 -9 -5 -9 8 0 24 4 35 9 13 5 14 9 5 9 -8 0
-24 -4 -35 -9z"/>
<path d="M2310 2030 c8 -5 20 -10 25 -10 6 0 3 5 -5 10 -8 5 -19 10 -25 10 -5
0 -3 -5 5 -10z"/>
<path d="M3305 2030 c3 -5 8 -10 11 -10 2 0 4 5 4 10 0 6 -5 10 -11 10 -5 0
-7 -4 -4 -10z"/>
<path d="M2350 2016 c0 -2 7 -7 16 -10 8 -3 12 -2 9 4 -6 10 -25 14 -25 6z"/>
<path d="M3510 2001 c-14 -28 -12 -39 4 -18 9 12 16 14 21 8 3 -6 2 -11 -3
-11 -12 0 -22 -51 -14 -66 8 -14 52 0 52 16 0 5 -3 9 -7 9 -18 -3 -33 2 -33
10 0 4 11 6 25 3 32 -6 32 1 -5 38 -28 28 -30 29 -40 11z"/>
<path d="M4028 1943 c7 -3 16 -2 19 1 4 3 -2 6 -13 5 -11 0 -14 -3 -6 -6z"/>
<path d="M1823 1553 c-13 -2 -23 -11 -23 -19 0 -17 -5 -17 -30 -2 -15 10 -27
10 -50 1 -16 -6 -30 -7 -30 -2 0 5 -9 9 -20 9 -21 0 -29 -20 -7 -20 16 -1 -23
-30 -41 -30 -7 0 -11 4 -8 9 8 13 -75 1 -106 -15 -17 -9 -42 -12 -65 -8 -45 7
-98 -14 -192 -75 -35 -22 -68 -41 -73 -41 -5 0 -35 -17 -66 -39 -31 -21 -72
-46 -90 -55 -18 -9 -30 -21 -27 -26 3 -5 1 -11 -5 -15 -5 -3 -10 -14 -10 -24
0 -12 -13 -22 -42 -31 -51 -15 -102 -50 -72 -50 14 0 12 -6 -14 -31 -18 -17
-32 -35 -32 -39 0 -5 -6 -15 -13 -22 -24 -24 -69 -88 -63 -88 3 0 32 27 63 61
32 33 79 77 106 96 26 19 47 41 47 49 0 8 7 14 15 14 8 0 37 15 64 34 56 40
210 119 261 135 144 45 201 62 245 71 165 37 390 40 559 10 109 -20 284 -77
338 -110 18 -11 44 -20 57 -20 13 0 21 -3 18 -7 -4 -3 17 -22 46 -42 59 -40
82 -60 74 -67 -5 -5 -77 30 -118 57 -45 31 -182 96 -239 114 -174 53 -256 65
-432 66 -234 0 -441 -53 -690 -177 -80 -40 -239 -166 -324 -258 -80 -85 -174
-216 -206 -286 -63 -139 -53 -113 -123 -330 -20 -63 -40 -121 -45 -130 -13
-21 -13 53 0 120 8 40 7 56 -1 61 -13 8 -6 130 10 172 5 13 12 37 14 53 3 16
17 58 31 93 47 117 16 79 -52 -64 -28 -61 -72 -190 -102 -305 -18 -70 -31
-109 -46 -138 -5 -9 -34 13 -34 27 -1 17 -27 57 -34 50 -2 -2 -11 -38 -19 -79
-9 -41 -22 -92 -29 -112 l-14 -37 -50 44 c-53 46 -107 135 -123 201 -7 29 -9
-7 -10 -134 l-1 -174 318 4 c229 2 323 6 333 15 8 7 24 12 34 12 64 2 108 12
156 36 53 26 127 50 299 95 47 12 105 29 130 37 25 9 61 19 80 24 19 4 65 14
101 23 61 13 147 44 191 67 10 5 28 9 40 9 13 0 44 20 71 45 27 25 53 45 58
45 5 0 38 26 73 58 34 31 72 65 84 74 21 17 22 17 22 -2 0 -34 23 -21 80 45
60 69 70 75 70 45 0 -13 -5 -18 -15 -14 -9 4 -19 -5 -28 -28 -12 -31 -12 -34
9 -50 12 -10 36 -18 52 -18 17 0 34 -5 37 -10 4 -6 15 -8 25 -5 10 3 48 8 84
9 35 2 70 7 76 11 14 8 13 10 -29 166 -17 64 -31 119 -31 121 0 3 21 11 48 18
26 7 85 23 132 37 47 13 108 28 135 33 28 4 64 13 80 18 30 11 103 31 181 51
66 17 72 15 85 -31 10 -39 84 -177 209 -393 29 -49 64 -110 78 -135 13 -25 42
-76 64 -113 22 -37 42 -83 45 -102 3 -19 7 -35 8 -35 2 0 16 7 31 15 16 8 22
15 14 15 -12 0 -12 2 1 16 9 8 61 27 115 40 97 25 144 45 87 38 l-28 -4 28 12
c15 7 27 17 27 23 0 7 19 18 43 25 78 25 13 21 -83 -5 -146 -39 -144 -39 -137
-28 4 6 19 13 34 16 55 11 118 28 148 42 16 7 80 29 140 48 118 37 128 61 14
32 -35 -9 -86 -17 -113 -19 -42 -2 -46 0 -30 11 10 7 22 13 27 13 4 0 6 4 3 9
-3 5 22 19 57 31 98 36 106 54 11 25 -57 -17 -98 -19 -89 -5 3 6 1 10 -4 10
-22 0 -10 30 12 31 14 1 10 4 -13 8 l-35 7 41 12 c23 7 47 19 54 27 7 8 27 15
44 16 17 1 42 4 56 8 24 7 24 7 -8 14 -18 4 -31 11 -28 16 7 11 -39 1 -149
-33 -11 -4 7 7 40 24 73 36 57 40 -25 5 -33 -14 -70 -25 -82 -25 -23 1 -23 1
2 15 l25 15 -30 -6 c-17 -3 -45 1 -65 10 -19 8 -29 15 -21 16 8 0 11 3 7 7 -4
4 8 13 26 19 24 9 28 13 13 14 -11 1 29 18 89 38 60 21 111 43 114 50 7 21
-31 13 -129 -26 -112 -46 -180 -63 -104 -27 59 28 57 30 -9 10 -59 -18 -89
-20 -66 -5 13 8 12 10 -2 10 -28 0 -21 15 15 32 l32 16 -62 -3 c-50 -3 -61 -1
-56 11 3 8 0 14 -7 14 -6 0 -8 4 -5 10 3 5 13 10 22 10 27 0 273 83 273 92 0
21 -50 9 -244 -62 -41 -15 -61 -18 -66 -10 -4 7 -22 8 -49 4 -37 -6 -42 -5
-39 11 2 14 -8 21 -52 31 -30 7 -68 11 -85 9 -35 -6 -71 20 -80 57 -6 23 -3
25 107 53 62 16 118 28 124 27 12 -2 110 21 244 57 169 45 165 44 144 52 -27
11 -54 10 -29 -1 23 -10 5 -13 -20 -4 -14 6 -12 10 12 25 38 26 10 25 -68 -1
-34 -12 -66 -19 -72 -17 -17 5 113 48 177 58 109 17 320 77 276 78 -56 2 -365
-70 -465 -109 -16 -6 -101 -29 -190 -51 -88 -21 -173 -44 -189 -51 -26 -11
-30 -9 -50 18 -30 43 -117 134 -128 134 -5 0 -1 -11 8 -25 18 -28 6 -33 -29
-11 -27 17 -97 28 -97 15 0 -20 -31 -7 -106 45 -118 80 -174 107 -195 96 -27
-15 -70 -11 -114 10 -22 11 -45 19 -50 20 -6 0 -17 15 -23 34 -11 30 -20 37
-75 55 -63 20 -152 35 -286 46 -40 4 -78 8 -85 9 -6 2 -21 1 -33 -1z m1744
-379 c-3 -3 -12 -4 -19 -1 -8 3 -5 6 6 6 11 1 17 -2 13 -5z m-252 -84 c-27
-12 -43 -12 -25 0 8 5 22 9 30 9 10 0 8 -3 -5 -9z m-1029 -290 c27 0 14 -19
-22 -30 -22 -8 -34 -17 -30 -25 2 -7 -4 -21 -15 -31 -19 -17 -27 -64 -10 -64
5 0 11 -11 13 -25 4 -17 1 -25 -8 -25 -8 0 -14 7 -14 16 0 15 -24 45 -35 44
-23 -1 -24 4 -3 33 12 17 33 43 45 57 13 14 26 33 29 43 4 11 12 16 21 13 8
-3 21 -6 29 -6z m-6 -180 c0 -11 5 -20 10 -20 17 0 11 -17 -8 -22 -15 -4 -19
2 -20 28 -2 19 2 34 8 34 5 0 10 -9 10 -20z m1440 -11 c0 -5 -17 -9 -37 -10
-40 0 -101 -6 -143 -13 -14 -2 -45 0 -70 4 -40 7 -37 8 35 9 44 1 85 5 92 9
16 10 123 11 123 1z m-155 -119 c-27 -12 -43 -12 -25 0 8 5 22 9 30 9 10 0 8
-3 -5 -9z m-145 -40 c0 -5 -8 -10 -17 -10 -15 0 -16 2 -3 10 19 12 20 12 20 0z
m267 4 c-3 -3 -12 -4 -19 -1 -8 3 -5 6 6 6 11 1 17 -2 13 -5z m-47 -44 c0 -5
-9 -10 -19 -10 -11 0 -22 -6 -24 -12 -4 -10 -6 -10 -6 0 -1 10 22 25 47 31 1
1 2 -3 2 -9z m-150 -40 c-20 -13 -33 -13 -25 0 3 6 14 10 23 10 15 0 15 -2 2
-10z m90 -100 c-8 -5 -22 -10 -30 -10 -13 0 -13 1 0 10 8 5 22 10 30 10 13 0
13 -1 0 -10z"/>
<path d="M3973 1323 c9 -2 23 -2 30 0 6 3 -1 5 -18 5 -16 0 -22 -2 -12 -5z"/>
<path d="M3775 1230 c-13 -6 -15 -9 -5 -9 8 0 22 4 30 9 18 12 2 12 -25 0z"/>
<path d="M3718 1193 c-10 -2 -18 -9 -18 -14 0 -13 13 -11 36 6 19 14 14 17
-18 8z"/>
<path d="M843 1164 l-28 -26 33 22 c29 20 39 30 28 30 -3 0 -18 -12 -33 -26z"/>
<path d="M3670 1130 c-8 -5 -10 -10 -5 -10 6 0 17 5 25 10 8 5 11 10 5 10 -5
0 -17 -5 -25 -10z"/>
<path d="M3590 1110 c-11 -8 -7 -9 15 -4 37 8 45 14 19 14 -10 0 -26 -5 -34
-10z"/>
<path d="M4085 1073 c-11 -3 -24 -10 -30 -15 -7 -7 -2 -8 15 -3 52 15 64 30
15 18z"/>
<path d="M3120 1020 c-9 -6 -10 -10 -3 -10 6 0 15 5 18 10 8 12 4 12 -15 0z"/>
<path d="M3199 1003 c-12 -15 -12 -16 4 -10 10 4 25 7 33 7 9 0 12 5 9 10 -9
15 -31 12 -46 -7z"/>
<path d="M3140 1006 c0 -2 9 -6 20 -9 11 -3 20 -1 20 4 0 5 -9 9 -20 9 -11 0
-20 -2 -20 -4z"/>
<path d="M4196 941 c-16 -17 -38 -32 -50 -34 -11 -2 8 -2 44 1 36 2 68 6 73 9
7 4 -23 52 -34 53 -3 0 -18 -13 -33 -29z"/>
<path d="M670 855 c-7 -9 -10 -18 -7 -21 3 -3 10 4 17 15 13 25 8 27 -10 6z"/>
<path d="M3525 845 c-26 -8 -33 -13 -19 -14 12 -1 37 6 55 14 42 18 18 18 -36
0z"/>
<path d="M3517 813 c-26 -9 -45 -18 -43 -21 5 -5 106 27 106 34 0 6 -11 4 -63
-13z"/>
<path d="M2588 613 c7 -3 16 -2 19 1 4 3 -2 6 -13 5 -11 0 -14 -3 -6 -6z"/>
<path d="M2430 590 c-8 -5 -11 -12 -8 -16 11 -10 60 5 53 16 -8 12 -26 12 -45
0z"/>
<path d="M3745 575 c-39 -17 -21 -18 25 0 19 7 28 14 20 14 -8 0 -28 -6 -45
-14z"/>
<path d="M2338 503 c-16 -2 -28 -9 -28 -14 0 -5 -5 -9 -11 -9 -5 0 -7 5 -4 10
3 6 1 10 -4 10 -16 0 -13 -20 4 -26 8 -4 13 -10 10 -15 -3 -4 -12 -6 -20 -2
-11 4 -13 1 -9 -11 5 -14 9 -14 35 5 16 11 29 16 29 11 0 -6 -6 -12 -12 -15
-10 -3 -7 -16 10 -51 12 -25 22 -57 22 -71 0 -13 5 -27 11 -31 8 -5 10 1 7 20
-4 19 -1 26 10 26 11 0 12 3 4 13 -6 7 -7 18 -3 26 7 11 11 9 20 -5 14 -25 13
-18 -4 40 -8 27 -12 59 -9 72 7 25 4 26 -58 17z m40 -68 c-2 -27 -13 -33 -21
-12 -5 16 3 37 14 37 5 0 8 -11 7 -25z"/>
<path d="M2598 483 c7 -3 16 -2 19 1 4 3 -2 6 -13 5 -11 0 -14 -3 -6 -6z"/>
<path d="M3760 478 c-19 -6 -30 -12 -24 -14 5 -3 28 2 50 10 45 17 26 19 -26
4z"/>
<path d="M2302 400 c-18 -29 -15 -48 4 -22 8 12 14 27 12 32 -2 6 -9 1 -16
-10z"/>
<path d="M3822 403 c-24 -8 -42 -17 -39 -19 7 -7 116 20 111 28 -7 11 -21 9
-72 -9z"/>
<path d="M4530 316 c0 -40 -68 -161 -114 -204 -49 -45 -126 -88 -183 -101 -27
-6 11 -9 135 -10 l172 -1 0 170 c0 94 -2 170 -5 170 -3 0 -5 -11 -5 -24z"/>
<path d="M1825 210 c-3 -5 -1 -10 4 -10 6 0 11 5 11 10 0 6 -2 10 -4 10 -3 0
-8 -4 -11 -10z"/>
<path d="M2530 210 c0 -5 7 -10 15 -10 8 0 15 5 15 10 0 6 -7 10 -15 10 -8 0
-15 -4 -15 -10z"/>
<path d="M2270 94 c0 -5 -10 -14 -22 -19 -12 -6 -30 -25 -40 -42 l-17 -33 61
4 c48 3 66 9 79 25 18 22 15 61 -5 61 -6 0 -21 3 -33 6 -13 4 -23 2 -23 -2z"/>
<path d="M3055 15 l-40 -13 53 -1 c40 -1 52 2 52 14 0 18 -12 18 -65 0z"/>
<path d="M1848 3 c6 -2 18 -2 25 0 6 3 1 5 -13 5 -14 0 -19 -2 -12 -5z"/>
</g>
</svg>
